<?xml version="1.0" encoding="utf-8"?>
<!-- Generator: Adobe Illustrator 21.0.2, SVG Export Plug-In . SVG Version: 6.00 Build 0)  -->
<svg version="1.1" id="Layer_1" xmlns="http://www.w3.org/2000/svg" xmlns:xlink="http://www.w3.org/1999/xlink" x="0px" y="0px"
	 viewBox="0 0 800 800" style="enable-background:new 0 0 800 800;" xml:space="preserve">
<style type="text/css">
	.st0{fill:#FAD4AD;}
	.st1{fill:#CCAD8B;}
	.st2{fill:#BCBEC0;}
	.st3{fill:#00D5CC;}
	.st4{fill:#F1F2F2;}
	.st5{fill:#D1D3D4;}
	.st6{fill:#FFE696;}
	.st7{fill:#FFFFFF;}
	.st8{fill:#E46A5D;}
	.st9{fill:#C95F52;}
	.st10{fill:#EBC7A2;}
	.st11{fill:#757575;}
	.st12{fill:#E3FFF0;}
	.st13{fill:#B8E9F4;}
	.st14{fill:#EA9644;}
	.st15{fill:none;stroke:#EA9644;stroke-width:2;stroke-miterlimit:10;}
	.st16{fill:#F9C59B;}
	.st17{fill:#9FE0F7;}
	.st18{fill:#F4564A;}
	.st19{fill:#8ACE7C;}
	.st20{fill:none;stroke:#EA9644;stroke-width:3;stroke-miterlimit:10;}
	.st21{fill:#DDF2F1;}
</style>
<g>
	<g>
		<g>
			<g>
				<path class="st0" d="M311.3,451.2c-5.4-8.1-5.6-14-5.6-14V316.4c0-17.9-14.5-32.4-32.4-32.4h-9.9v153.2h0.1l-5.3,32l-8.4,51.3
					c-4.3,26.4,9.8,51.5,32.8,62.4v139.6h141V608.4l1.5,0.3c31.9,5.2,62-16.4,67.2-48.3l8.8-53.7L311.3,451.2z"/>
			</g>
		</g>
		<g>
			<g>
				<path d="M425.6,724.5H280.8V584.1c-23.6-11.7-37.1-37.8-32.8-63.9l13.6-82.5l0-0.5V282.1h11.8c19,0,34.4,15.4,34.4,34.4v120.7
					l0,0c0,0,0.3,5.2,4.9,12.3l190.9,55.8l-9.1,55.3c-4.8,29.4-29.9,50.7-59.6,50.7c0,0,0,0,0,0c-3.1,0-6.1-0.2-9.2-0.7V724.5z
					 M284.6,720.6h137.2V606.1l3.8,0.6c3.1,0.5,6.2,0.8,9.2,0.8c27.8,0,51.3-20,55.8-47.4l8.5-52l-189-55.3l-0.4-0.6
					c-5.6-8.4-5.9-14.7-5.9-15l0-120.8c0-16.8-13.7-30.5-30.5-30.5h-8v149.3h0.3l-0.2,2.2l-13.7,83.3c-4.1,24.8,9,49.6,31.8,60.4
					l1.1,0.5V720.6z"/>
			</g>
		</g>
	</g>
	<g>
		<g>
			<g>
				<path class="st1" d="M531.5,353.6c-0.9-9.4,4-18.1,11.8-22.4l-29,2.8c-11.6,1.1-20.2,11.4-19.1,23.1
					c1.1,11.6,11.4,20.2,23.1,19.1l29.1-2.8C538.9,370.6,532.4,363,531.5,353.6z"/>
			</g>
		</g>
		<g>
			<g>
				<path d="M516.2,378.1L516.2,378.1c-12,0-21.8-9-23-20.9c-1.2-12.7,8.1-24,20.8-25.2l38.2-3.6l-8,4.5
					c-7.4,4.1-11.6,12.1-10.8,20.5c0.8,8.4,6.5,15.5,14.5,18.1l8.8,2.9l-38.3,3.6C517.7,378.1,516.9,378.1,516.2,378.1z
					 M536.7,333.8l-22.3,2.1c-10.6,1-18.4,10.4-17.4,21c1,9.9,9.2,17.4,19.1,17.4h0c0.6,0,1.2,0,1.8-0.1l22.4-2.1
					c-6.1-4.1-10.1-10.8-10.8-18.3C528.8,346.3,531.6,339,536.7,333.8z"/>
			</g>
		</g>
	</g>
	<g>
		<g>
			<g>
				<path class="st0" d="M571.8,349.8c-1.1-11.6-11.4-20.2-23.1-19.1l-5.5,0.5c-7.8,4.3-12.7,13-11.8,22.4c0.9,9.4,7.4,17,15.9,19.8
					l5.4-0.5C564.4,371.8,572.9,361.4,571.8,349.8z"/>
			</g>
		</g>
		<g>
			<g>
				<path d="M547.1,375.3l-0.4-0.1c-9.5-3.1-16.2-11.5-17.2-21.4c-0.9-9.9,4.1-19.4,12.8-24.3l0.8-0.2l5.5-0.5
					c12.9-1.2,24,8.2,25.2,20.8c1.2,12.7-8.1,24-20.8,25.2L547.1,375.3z M543.9,333.1c-7.2,4.1-11.2,12.1-10.5,20.3
					c0.8,8.3,6.3,15.3,14.2,18l5-0.5c10.6-1,18.3-10.4,17.3-21c-1-10.5-10.2-18.4-21-17.3L543.9,333.1z"/>
			</g>
		</g>
	</g>
	<g>
		<g>
			<path class="st2" d="M524.4,215.5c0-15.8-12.8-28.7-28.7-28.7H328.5c-15.8,0-28.7,12.8-28.7,28.7V240h224.6V215.5z"/>
		</g>
		<g>
			<path d="M526.3,241.9H297.9v-26.4c0-16.9,13.7-30.6,30.6-30.6h167.2c16.9,0,30.6,13.7,30.6,30.6V241.9z M301.7,238h220.7v-22.5
				c0-14.7-12-26.7-26.7-26.7H328.5c-14.7,0-26.7,12-26.7,26.7V238z"/>
		</g>
	</g>
	<g>
		<g>
			<path class="st2" d="M299.8,544.7c0,15.8,12.8,28.7,28.7,28.7h167.2c15.8,0,28.7-12.8,28.7-28.7v-32.3H299.8V544.7z"/>
		</g>
		<g>
			<path d="M495.7,575.3H328.5c-16.9,0-30.6-13.7-30.6-30.6v-34.2h228.4v34.2C526.3,561.6,512.6,575.3,495.7,575.3z M301.7,514.4
				v30.3c0,14.7,12,26.7,26.7,26.7h167.2c14.7,0,26.7-12,26.7-26.7v-30.3H301.7z"/>
		</g>
	</g>
	<g>
		<g>
			<rect x="299.8" y="240" class="st3" width="224.6" height="272.5"/>
		</g>
		<g>
			<path d="M526.3,514.4H297.9V238h228.4V514.4z M301.7,510.6h220.7V241.9H301.7V510.6z"/>
		</g>
	</g>
	<g>
		<g>
			<path class="st4" d="M448.9,542.9c0,7.1-5.8,12.9-12.9,12.9h-47.8c-7.2,0-12.9-5.8-12.9-12.9l0,0c0-7.1,5.8-12.9,12.9-12.9H436
				C443.2,530,448.9,535.8,448.9,542.9L448.9,542.9z"/>
		</g>
		<g>
			<path d="M436,557.8h-47.8c-8.2,0-14.9-6.7-14.9-14.9c0-8.2,6.7-14.9,14.9-14.9H436c8.2,0,14.9,6.7,14.9,14.9
				C450.9,551.1,444.2,557.8,436,557.8z M388.2,531.9c-6.1,0-11,4.9-11,11c0,6.1,4.9,11,11,11H436c6.1,0,11-4.9,11-11
				c0-6.1-4.9-11-11-11H388.2z"/>
		</g>
	</g>
	<g>
		<g>
			<path d="M456.5,215.3h-88.9c-1.1,0-1.9-0.9-1.9-1.9c0-1.1,0.9-1.9,1.9-1.9h88.9c1.1,0,1.9,0.9,1.9,1.9
				C458.5,214.5,457.6,215.3,456.5,215.3z"/>
		</g>
	</g>
	<g>
		<g>
			<g>
				<path class="st5" d="M386.1,478.9c1.5,7.8,8.4,13.8,16.8,13.8h18.4c8.3,0,15.2-5.9,16.8-13.8H386.1z"/>
			</g>
			<g>
				<path d="M421.3,494.6h-18.4c-9.1,0-16.9-6.4-18.6-15.3c-0.1-0.6,0-1.1,0.4-1.6c0.4-0.4,0.9-0.7,1.5-0.7h51.9
					c0.6,0,1.1,0.3,1.5,0.7c0.4,0.4,0.5,1,0.4,1.6C438.2,488.2,430.3,494.6,421.3,494.6z M388.7,480.8c2.2,5.9,7.8,9.9,14.2,9.9
					h18.4c6.4,0,12.1-4.1,14.2-9.9H388.7z"/>
			</g>
		</g>
		<g>
			<g>
				<path class="st6" d="M482.6,336.4c0-38.9-31.6-70.5-70.5-70.5c-38.9,0-70.5,31.6-70.5,70.5c0,16.7,5.9,32.1,15.6,44.2l0,0
					c0,0,10.7,13.5,12.2,28.5c0,0,0.9,23.9,24,23.9h18.7h18.7c23.2,0,24-23.9,24-23.9c1.5-15,12.2-28.5,12.2-28.5l0,0
					C476.7,368.5,482.6,353.2,482.6,336.4z"/>
			</g>
			<g>
				<path d="M430.8,434.9h-37.5c-24.7,0-25.9-25.5-26-25.7c-1.4-14.1-11.7-27.2-11.8-27.4c-0.1-0.1-0.1-0.2-0.2-0.3
					c-10.3-12.9-15.8-28.5-15.8-45c0-39.9,32.5-72.4,72.4-72.4c39.9,0,72.4,32.5,72.4,72.4c0,16.6-5.5,32.1-15.8,45.1
					c0,0.1-0.1,0.2-0.2,0.3c-0.1,0.1-10.4,13.3-11.8,27.5C456.8,409.4,455.6,434.9,430.8,434.9z M358.9,379.7
					c1.7,2.2,10.9,14.9,12.3,29.2c0,1,1.1,22.1,22.1,22.1h37.5c21,0,22.1-21.1,22.1-22c1.4-14.5,10.8-27.2,12.4-29.3
					c0.1-0.1,0.1-0.2,0.2-0.3c9.9-12.3,15.2-27.2,15.2-42.9c0-37.8-30.8-68.6-68.6-68.6c-37.8,0-68.6,30.8-68.6,68.6
					c0,15.8,5.2,30.6,15.2,42.9C358.8,379.5,358.9,379.6,358.9,379.7z"/>
			</g>
		</g>
		<g>
			<g>
				<path class="st5" d="M423.7,433v-47.4c0-6.4-5.2-11.6-11.6-11.6c-6.4,0-11.6,5.2-11.6,11.6V433H423.7z"/>
			</g>
			<g>
				<path d="M423.7,434.9h-23.2c-1.1,0-1.9-0.9-1.9-1.9v-47.4c0-7.5,6.1-13.5,13.5-13.5c7.5,0,13.5,6.1,13.5,13.5V433
					C425.6,434,424.8,434.9,423.7,434.9z M402.4,431h19.4v-45.4c0-5.3-4.3-9.7-9.7-9.7c-5.3,0-9.7,4.3-9.7,9.7V431z"/>
			</g>
		</g>
		<g>
			<g>
				<line class="st7" x1="412.1" y1="374" x2="412.1" y2="336.8"/>
			</g>
			<g>
				<path d="M412.1,375.9c-1.1,0-1.9-0.9-1.9-1.9v-37.2c0-1.1,0.9-1.9,1.9-1.9c1.1,0,1.9,0.9,1.9,1.9V374
					C414,375,413.2,375.9,412.1,375.9z"/>
			</g>
		</g>
		<g>
			<g>
				<line class="st7" x1="422.9" y1="381.3" x2="442.9" y2="336.8"/>
			</g>
			<g>
				<path d="M422.9,383.2c-0.3,0-0.5-0.1-0.8-0.2c-1-0.4-1.4-1.6-1-2.5l20.1-44.5c0.4-1,1.6-1.4,2.5-1c1,0.4,1.4,1.6,1,2.5
					L424.6,382C424.3,382.8,423.6,383.2,422.9,383.2z"/>
			</g>
		</g>
		<g>
			<g>
				<line class="st7" x1="400.5" y1="381.3" x2="380.4" y2="336.8"/>
			</g>
			<g>
				<path d="M400.5,383.2c-0.7,0-1.4-0.4-1.8-1.1l-20.1-44.5c-0.4-1,0-2.1,1-2.5c1-0.4,2.1,0,2.5,1l20.1,44.5c0.4,1,0,2.1-1,2.5
					C401,383.1,400.8,383.2,400.5,383.2z"/>
			</g>
		</g>
		<g>
			<g>
				<line class="st7" x1="370.2" y1="336.8" x2="454" y2="336.8"/>
			</g>
			<g>
				<path d="M454,338.7h-83.7c-1.1,0-1.9-0.9-1.9-1.9c0-1.1,0.9-1.9,1.9-1.9H454c1.1,0,1.9,0.9,1.9,1.9
					C455.9,337.9,455,338.7,454,338.7z"/>
			</g>
		</g>
		<g>
			<g>
				<line class="st7" x1="385.9" y1="443.6" x2="438.3" y2="443.6"/>
			</g>
			<g>
				<path d="M438.3,445.6h-52.5c-1.1,0-1.9-0.9-1.9-1.9c0-1.1,0.9-1.9,1.9-1.9h52.5c1.1,0,1.9,0.9,1.9,1.9
					C440.3,444.7,439.4,445.6,438.3,445.6z"/>
			</g>
		</g>
		<g>
			<g>
				<line class="st7" x1="385.9" y1="456.4" x2="438.3" y2="456.4"/>
			</g>
			<g>
				<path d="M438.3,458.3h-52.5c-1.1,0-1.9-0.9-1.9-1.9s0.9-1.9,1.9-1.9h52.5c1.1,0,1.9,0.9,1.9,1.9S439.4,458.3,438.3,458.3z"/>
			</g>
		</g>
		<g>
			<g>
				<line class="st7" x1="385.9" y1="469.2" x2="438.3" y2="469.2"/>
			</g>
			<g>
				<path d="M438.3,471.1h-52.5c-1.1,0-1.9-0.9-1.9-1.9c0-1.1,0.9-1.9,1.9-1.9h52.5c1.1,0,1.9,0.9,1.9,1.9
					C440.3,470.3,439.4,471.1,438.3,471.1z"/>
			</g>
		</g>
	</g>
	<g>
		<g>
			<g>
				<path class="st0" d="M507.8,538.3c-11,4-23.1-1.7-27.1-12.7l0,0c-4-11,1.7-23.1,12.7-27.1l32.6-11.8c11-4,23.1,1.7,27.1,12.7
					l0,0c4,11-1.7,23.1-12.7,27.1L507.8,538.3z"/>
			</g>
		</g>
		<g>
			<g>
				<path d="M500.6,541.5c-9.7,0-18.4-6.1-21.7-15.3c-2.1-5.8-1.8-12.1,0.8-17.7c2.6-5.6,7.3-9.8,13.1-11.9l32.6-11.8
					c2.5-0.9,5.2-1.4,7.8-1.4c9.7,0,18.4,6.1,21.7,15.3c2.1,5.8,1.8,12.1-0.8,17.7c-2.6,5.6-7.3,9.8-13.1,11.9l-32.6,11.8
					C505.9,541,503.3,541.5,500.6,541.5z M533.2,487.3c-2.2,0-4.4,0.4-6.5,1.2L494,500.3c-4.8,1.7-8.7,5.3-10.9,9.9
					c-2.2,4.7-2.4,9.9-0.7,14.7c2.8,7.6,10,12.7,18.1,12.7c2.2,0,4.4-0.4,6.5-1.2l32.6-11.8c4.8-1.7,8.7-5.3,10.9-9.9
					c2.2-4.7,2.4-9.9,0.7-14.7C548.5,492.4,541.2,487.3,533.2,487.3z"/>
			</g>
		</g>
	</g>
	<g>
		<g>
			<g>
				<path class="st0" d="M507.8,485.8c-11,4-23.1-1.7-27.1-12.7l0,0c-4-11,1.7-23.1,12.7-27.1l32.6-11.8c11-4,23.1,1.7,27.1,12.7
					l0,0c4,11-1.7,23.1-12.7,27.1L507.8,485.8z"/>
			</g>
		</g>
		<g>
			<g>
				<path d="M500.6,489c-9.7,0-18.4-6.1-21.7-15.3c-2.1-5.8-1.8-12.1,0.8-17.7c2.6-5.6,7.3-9.8,13.1-11.9l32.6-11.8
					c2.5-0.9,5.2-1.4,7.8-1.4c9.7,0,18.4,6.1,21.7,15.3c2.1,5.8,1.8,12.1-0.8,17.7c-2.6,5.6-7.3,9.8-13.1,11.9l-32.6,11.8
					C505.9,488.6,503.3,489,500.6,489z M533.2,434.9c-2.2,0-4.4,0.4-6.5,1.2L494,447.8c-4.8,1.7-8.7,5.3-10.9,9.9
					c-2.2,4.7-2.4,9.9-0.7,14.7c2.8,7.6,10,12.7,18.1,12.7c2.2,0,4.4-0.4,6.5-1.2l32.6-11.8c4.8-1.7,8.7-5.3,10.9-9.9
					c2.2-4.7,2.4-9.9,0.7-14.7C548.5,440,541.2,434.9,533.2,434.9z"/>
			</g>
		</g>
	</g>
	<g>
		<g>
			<g>
				<path class="st0" d="M507.8,433.4c-11,4-23.1-1.7-27.1-12.7l0,0c-4-11,1.7-23.1,12.7-27.1l32.6-11.8c11-4,23.1,1.7,27.1,12.7
					l0,0c4,11-1.7,23.1-12.7,27.1L507.8,433.4z"/>
			</g>
		</g>
		<g>
			<g>
				<path d="M500.6,436.6c-9.7,0-18.4-6.1-21.7-15.3c-2.1-5.8-1.8-12.1,0.8-17.7c2.6-5.6,7.3-9.8,13.1-11.9l32.6-11.8
					c2.5-0.9,5.2-1.4,7.8-1.4c9.7,0,18.4,6.1,21.7,15.3c4.3,12-1.9,25.2-13.9,29.6l-32.6,11.8C505.9,436.1,503.3,436.6,500.6,436.6z
					 M533.2,382.4c-2.2,0-4.4,0.4-6.5,1.2L494,395.4c-4.8,1.7-8.7,5.3-10.9,9.9c-2.2,4.7-2.4,9.9-0.7,14.7
					c2.8,7.6,10,12.7,18.1,12.7c2.2,0,4.4-0.4,6.5-1.2l32.6-11.8c10-3.6,15.2-14.7,11.6-24.7C548.5,387.5,541.2,382.4,533.2,382.4z"
					/>
			</g>
		</g>
	</g>
	<g>
		<g>
			<g>
				<path class="st0" d="M319.3,460c-2.3-2.4-6.6-7.2-8-9.4c-5.4-8.1-5.6-14-5.6-14V315.9c0-17.9-14.5-32.4-32.4-32.4h-9.9
					l0.1,153.2l-5.3,32l-8.4,51.3c-4.3,26.4,9.8,51.6,32.8,62.4l38-5.7l3-3.8l10.3-64.2C335.5,484.2,327.8,469.1,319.3,460z"/>
			</g>
		</g>
		<g>
			<g>
				<path d="M282.7,584.3c-0.3,0-0.6-0.1-0.8-0.2c-24.3-11.4-38.3-38-33.9-64.5l13.7-83.3l-0.2-152.9c0-0.5,0.2-1,0.6-1.4
					c0.4-0.4,0.8-0.6,1.4-0.6h9.9c19,0,34.4,15.4,34.4,34.4v120.7l0,0c0,0,0.3,5.5,5.2,12.9c1.3,2,5.4,6.5,7.8,9.1
					c11.4,12.2,16.5,29.1,15.2,50.1c0,0.1,0,0.1,0,0.2l-10.3,64.2c-0.2,1-1.1,1.8-2.2,1.6c-0.9-0.2-1.6-1-1.6-1.9c0-0.1,0-0.2,0-0.3
					l10.3-64.2c1.2-19.8-3.5-35.7-14.2-47.1c-2-2-6.5-7.1-8.2-9.6c-5.6-8.4-5.9-14.7-5.9-15l0-120.8c0-16.8-13.7-30.5-30.5-30.5h-8
					l0.1,151.3l-13.7,83.6c-4.1,24.8,9,49.6,31.8,60.4c1,0.5,1.4,1.6,0.9,2.6C284.1,583.9,283.4,584.3,282.7,584.3z"/>
			</g>
		</g>
	</g>
	<g>
		<g>
			<g>
				<rect x="262.3" y="652.2" class="st8" width="183" height="145.9"/>
			</g>
		</g>
		<g>
			<g>
				<path d="M447.3,800H260.4V650.3h186.8V800z M264.3,796.1h179.1v-142H264.3V796.1z"/>
			</g>
		</g>
	</g>
	<g>
		<g>
			<rect x="412.1" y="667.9" class="st9" width="20.8" height="116.5"/>
		</g>
	</g>
	<g>
		<g>
			<rect x="397.4" y="604.1" class="st10" width="15.3" height="46"/>
		</g>
	</g>
	<g>
		<g>
			<path class="st10" d="M544.2,513.1c0.8,2.4-0.4,5-2.7,5.8L505,532c-2.4,0.8-5-0.4-5.8-2.7l0,0c-0.8-2.4,0.4-5,2.7-5.8l36.4-13.1
				C540.8,509.5,543.4,510.7,544.2,513.1L544.2,513.1z"/>
		</g>
	</g>
	<g>
		<g>
			<path class="st10" d="M544.2,460.6c0.8,2.4-0.4,5-2.7,5.8L505,479.5c-2.4,0.8-5-0.4-5.8-2.7l0,0c-0.8-2.4,0.4-5,2.7-5.8
				l36.4-13.1C540.8,457.1,543.4,458.3,544.2,460.6L544.2,460.6z"/>
		</g>
	</g>
	<g>
		<g>
			<path class="st10" d="M544.2,408.2c0.8,2.4-0.4,5-2.7,5.8L505,427.1c-2.4,0.9-5-0.4-5.8-2.7l0,0c-0.8-2.4,0.4-5,2.7-5.8
				l36.4-13.1C540.8,404.6,543.4,405.8,544.2,408.2L544.2,408.2z"/>
		</g>
	</g>
	<g>
		<g>
			<path class="st10" d="M304.5,468.7v104.7h8.6l9.4-67.1C322.5,506.3,325.6,480.8,304.5,468.7z"/>
		</g>
	</g>
</g>
<g>
	<path class="st11" d="M794.7,481.1c0-11.8-9.6-21.4-21.4-21.4H648.3c-11.8,0-21.4,9.6-21.4,21.4v18.3h167.9V481.1z"/>
	<path class="st11" d="M796.7,501.3H624.9v-20.2c0-12.9,10.5-23.4,23.4-23.4h125.1c12.9,0,23.4,10.5,23.4,23.4V501.3z M628.8,497.4
		h164.1v-16.4c0-10.8-8.7-19.5-19.5-19.5H648.3c-10.8,0-19.5,8.8-19.5,19.5V497.4z"/>
</g>
<g>
	<path class="st11" d="M626.8,727.2c0,11.8,9.6,21.4,21.4,21.4h125.1c11.8,0,21.4-9.6,21.4-21.4v-24.1H626.8V727.2z"/>
	<path class="st11" d="M773.3,750.6H648.3c-12.9,0-23.4-10.5-23.4-23.4v-26.1h171.8v26.1C796.7,740.1,786.2,750.6,773.3,750.6z
		 M628.8,705v22.2c0,10.8,8.7,19.5,19.5,19.5h125.1c10.8,0,19.5-8.8,19.5-19.5V705H628.8z"/>
</g>
<g>
	<rect x="626.8" y="499.3" class="st12" width="167.9" height="203.8"/>
	<path class="st12" d="M796.7,705H624.9V497.4h171.8V705z M628.8,701.2h164.1V501.3H628.8V701.2z"/>
</g>
<g>
	<path class="st7" d="M738.3,725.9c0,5.3-4.3,9.7-9.7,9.7h-35.7c-5.3,0-9.7-4.3-9.7-9.7l0,0c0-5.3,4.3-9.7,9.7-9.7h35.7
		C734,716.2,738.3,720.6,738.3,725.9L738.3,725.9z"/>
	<path class="st7" d="M728.7,737.5h-35.7c-6.4,0-11.6-5.2-11.6-11.6c0-6.4,5.2-11.6,11.6-11.6h35.7c6.4,0,11.6,5.2,11.6,11.6
		C740.3,732.3,735.1,737.5,728.7,737.5z M692.9,718.1c-4.3,0-7.8,3.5-7.8,7.7c0,4.3,3.5,7.8,7.8,7.8h35.7c4.3,0,7.8-3.5,7.8-7.8
		c0-4.3-3.5-7.7-7.8-7.7H692.9z"/>
</g>
<g>
	<line class="st7" x1="677.6" y1="479.5" x2="744" y2="479.5"/>
	<path class="st7" d="M744,481.4h-66.5c-1.1,0-1.9-0.9-1.9-1.9c0-1.1,0.9-1.9,1.9-1.9H744c1.1,0,1.9,0.9,1.9,1.9
		C745.9,480.5,745.1,481.4,744,481.4z"/>
</g>
<g>
	<path class="st13" d="M719.8,630.7c9,6,15.8,19,27.3,24.6v-17.8c0-12.3-23.6-30.8-27.5-33.5c-0.2-0.1-0.4-0.2-0.6-0.4
		c-0.7-0.6-1.2-1.4-1.2-2.4c0-1,0.5-1.8,1.2-2.4c0.2-0.1,0.4-0.3,0.6-0.4c3.9-2.8,27.5-21.2,27.5-33.5v-4
		c-22.4,12.1-50.5,12.7-72.6-0.7v4.7c0,12.4,23.7,30.9,27.7,33.6c0.1,0.1,0.2,0.1,0.3,0.2c0.8,0.6,1.2,1.5,1.2,2.5
		c0,1-0.5,1.9-1.2,2.5c-0.1,0.1-0.2,0.2-0.3,0.2c-4,2.7-27.7,21.2-27.7,33.6v14.7C690.9,644.6,702.1,620.1,719.8,630.7z"/>
	<path class="st13" d="M749,658.4l-2.8-1.3c-7-3.4-12.1-9.1-17-14.6c-3.5-3.9-6.9-7.7-10.5-10.1c-2.5-1.5-5-2.3-7.6-2.3
		c-6.9,0-13.1,5.8-19.8,11.9c-5,4.6-10.2,9.4-16.1,12.1l-2.7,1.3v-17.8c0-14.6,28.3-35,28.6-35.2c0.4-0.3,0.7-0.6,0.7-1.1
		c0-0.4-0.2-0.7-0.5-0.9c-0.6-0.4-28.8-20.8-28.8-35.4v-8.2l2.9,1.8c10.4,6.3,22.6,9.7,35.3,9.7c12.3,0,24.5-3.1,35.4-9l2.8-1.5v7.2
		c0,14.6-28,34.9-28.3,35.1l-0.4,0.3c-0.3,0.2-0.4,0.6-0.4,0.9c0,0.5,0.3,0.8,0.5,0.9l0.4,0.3c0.3,0.2,28.3,20.5,28.3,35.1V658.4z
		 M711.1,626.2c3.2,0,6.4,0.9,9.6,2.9c4.1,2.8,7.6,6.7,11.3,10.8c4,4.5,8.1,9,13.1,12.2v-14.5c0-10.1-19.6-27-26.7-32
		c-0.1,0-0.4-0.2-0.7-0.5c-1.2-1-1.8-2.4-1.8-3.9c0-1.5,0.7-2.9,1.9-3.9c0.3-0.2,0.6-0.4,0.9-0.6c6.9-4.8,26.4-21.7,26.4-31.8v-0.9
		c-10.7,5.2-22.5,8-34.4,8c-12.2,0-24.1-2.9-34.4-8.5v1.4c0,10.3,19.7,27.1,26.9,32c0.1,0,0.3,0.2,0.5,0.3c1.2,0.9,1.9,2.4,1.9,4
		c0,1.6-0.7,3-2,4c-0.1,0.1-0.3,0.2-0.5,0.4c-4.3,3-26.8,20.8-26.8,31.9v11.5c4.3-2.6,8.4-6.4,12.4-10
		C696,632.4,702.8,626.2,711.1,626.2z"/>
</g>
<g>
	<path class="st14" d="M719.8,630.7c-17.6-10.6-28.9,13.9-45.3,21.6v17.1h72.6v-14C735.5,649.7,728.8,636.7,719.8,630.7z"/>
	<path class="st14" d="M749,671.3h-76.5v-20.2l1.1-0.5c5.4-2.5,10.3-7.1,15.1-11.5c7.2-6.6,14-12.9,22.4-12.9c3.2,0,6.4,1,9.6,2.9
		c4.1,2.8,7.6,6.7,11.3,10.8c4.7,5.3,9.6,10.7,15.9,13.7l1.1,0.5V671.3z M676.4,667.4h68.8v-10.9c-6.4-3.4-11.3-8.8-15.9-14.1
		c-3.5-3.9-6.9-7.7-10.5-10.1c-2.5-1.5-5-2.3-7.6-2.3c-6.9,0-13.1,5.8-19.8,11.9c-4.7,4.3-9.5,8.8-15,11.6V667.4z"/>
</g>
<g>
	<path class="st13" d="M674.5,533.1v27.1c22.1,13.4,50.3,12.8,72.6,0.7v-27.8H674.5z"/>
	<path class="st13" d="M710.8,572L710.8,572c-13.4,0-26.3-3.5-37.3-10.2l-0.9-0.6v-30.1H749v30.9l-1,0.5
		C736.6,568.8,723.7,572,710.8,572z M676.4,559.1c10.2,6,22.1,9.1,34.4,9.1h0c11.9,0,23.8-2.9,34.4-8.4V535h-68.8V559.1z"/>
</g>
<g>
	<polyline class="st13" points="702.2,598.5 710.8,603.5 719,598.8 	"/>
	<polygon class="st13" points="710.8,605.7 701.2,600.2 703.2,596.9 710.8,601.3 718.1,597.2 720,600.5 	"/>
</g>
<g>
	<line class="st14" x1="710.8" y1="603.5" x2="710.8" y2="610.2"/>
	<rect x="708.9" y="603.5" class="st14" width="3.8" height="6.7"/>
</g>
<g>
	<line class="st14" x1="710.6" y1="619.2" x2="710.6" y2="628.1"/>
	<rect x="708.7" y="619.2" class="st14" width="3.9" height="8.9"/>
</g>
<g>
	<path class="st6" d="M756.2,526.2c0,3.9-3.1,7-7,7h-76.8c-3.8,0-7-3.1-7-7v-6.4c0-3.9,3.1-7,7-7h76.8c3.9,0,7,3.1,7,7V526.2z"/>
	<path class="st6" d="M749.2,535h-76.8c-4.9,0-8.9-4-8.9-8.9v-6.4c0-4.9,4-8.9,8.9-8.9h76.8c4.9,0,8.9,4,8.9,8.9v6.4
		C758.1,531.1,754.1,535,749.2,535z M672.4,514.7c-2.8,0-5,2.3-5,5v6.4c0,2.8,2.3,5,5,5h76.8c2.8,0,5-2.3,5-5v-6.4c0-2.8-2.3-5-5-5
		H672.4z"/>
</g>
<g>
	<path class="st6" d="M756.2,682.7c0,3.8-3.1,7-7,7h-76.8c-3.8,0-7-3.1-7-7v-6.4c0-3.8,3.1-7,7-7h76.8c3.9,0,7,3.1,7,7V682.7z"/>
	<path class="st6" d="M749.2,691.6h-76.8c-4.9,0-8.9-4-8.9-8.9v-6.4c0-4.9,4-8.9,8.9-8.9h76.8c4.9,0,8.9,4,8.9,8.9v6.4
		C758.1,687.6,754.1,691.6,749.2,691.6z M672.4,671.3c-2.8,0-5,2.3-5,5v6.4c0,2.8,2.3,5,5,5h76.8c2.8,0,5-2.3,5-5v-6.4
		c0-2.8-2.3-5-5-5H672.4z"/>
</g>
<g>
	<circle class="st15" cx="547.5" cy="665.2" r="68.1"/>
	<path class="st15" d="M547.5,735.3c-38.6,0-70-31.4-70-70c0-38.6,31.4-70,70-70c38.6,0,70,31.4,70,70
		C617.6,703.9,586.1,735.3,547.5,735.3z M547.5,599c-36.5,0-66.2,29.7-66.2,66.2c0,36.5,29.7,66.2,66.2,66.2
		c36.5,0,66.2-29.7,66.2-66.2C613.7,628.7,584,599,547.5,599z"/>
</g>
<g>
	<g>
		<polygon class="st14" points="129.9,349.8 129.3,349.8 129.3,431.2 49.6,431.2 49.6,349.8 49,349.8 8.5,419.9 49,491.1 49,748.7 
			129.9,748.7 129.9,491.1 170.4,419.9 		"/>
		<path class="st14" d="M131.8,750.6H47.1v-259L6.3,419.9l41.6-72h3.7v81.5h75.9v-81.5h3.7l41.6,72l-40.8,71.7V750.6z M51,746.8h77
			V490.6l40.3-70.7l-37-64v77.3H47.7v-77.3l-37,64L51,490.6V746.8z"/>
	</g>
	<g>
		<path class="st14" d="M112.6,748.7V536.6c0-12.8-10.3-23.1-23.1-23.1c-12.8,0-23.1,10.3-23.1,23.1v212.1H112.6z"/>
		<path class="st16" d="M114.5,750.6h-50v-214c0-13.8,11.2-25,25-25c13.8,0,25,11.2,25,25V750.6z M68.3,746.8h42.3V536.6
			c0-11.7-9.5-21.2-21.2-21.2c-11.7,0-21.2,9.5-21.2,21.2V746.8z"/>
	</g>
	<g>
		<rect x="49" y="489.1" class="st14" width="37.9" height="3.8"/>
	</g>
</g>
<g>
	<path class="st17" d="M176.1,619.6h-143c-10.3,0-18.7,8.4-18.7,18.7V730c0,10.3,8.3,18.7,18.7,18.7h159c10.3,0,18.7-8.4,18.7-18.7
		v-75.9l22-50L176.1,619.6z"/>
	<path class="st17" d="M192.1,750.6h-159c-11.3,0-20.6-9.2-20.6-20.6v-91.8c0-11.3,9.2-20.6,20.6-20.6h142.8l60.3-16.4l-23.5,53.3
		V730C212.7,741.4,203.4,750.6,192.1,750.6z M33.1,621.5c-9.2,0-16.7,7.5-16.7,16.7V730c0,9.2,7.5,16.7,16.7,16.7h159
		c9.2,0,16.7-7.5,16.7-16.7l0.2-76.7l20.4-46.3l-53.2,14.4H33.1z"/>
</g>
<g>
	<path class="st13" d="M542.9,130.7c-0.7-2.9-1.1-6-1.1-9.1c0-21.5,17.4-38.9,38.8-38.9c6.5,0,12.7,1.6,18.1,4.5
		c6.2-31.8,34.2-55.8,67.9-55.8c32.8,0,60.1,22.8,67.3,53.4c3.9-1.3,8.1-2.1,12.4-2.1c21.5,0,38.9,17.4,38.9,38.9
		c0,3.1-0.4,6.2-1.1,9.1H542.9z"/>
	<path class="st13" d="M785.7,132.6H541.4l-0.4-1.5c-0.8-3.2-1.2-6.4-1.2-9.5c0-22.5,18.3-40.8,40.8-40.8c5.8,0,11.5,1.2,16.7,3.6
		c7.5-32,36.2-54.9,69.2-54.9c32.5,0,60.4,21.6,68.7,52.8c3.6-1,7.3-1.5,11.1-1.5c22.5,0,40.8,18.3,40.8,40.8c0,3.1-0.4,6.4-1.2,9.5
		L785.7,132.6z M544.5,128.7h238.1c0.5-2.4,0.7-4.8,0.7-7.2c0-20.4-16.6-36.9-36.9-36.9c-4,0-8,0.7-11.8,2l-2,0.7l-0.5-2.1
		c-7.2-30.5-34.1-51.9-65.4-51.9c-32.1,0-59.8,22.8-66,54.2l-0.5,2.5l-2.3-1.2c-5.3-2.8-11.2-4.3-17.2-4.3
		c-20.4,0-36.9,16.6-36.9,36.9C543.8,123.9,544,126.3,544.5,128.7z"/>
</g>
<g>
	<path class="st18" d="M750.8,108.7c0-24.1-19.6-43.6-43.7-43.6c-24.1,0-43.6,19.6-43.6,43.7c0,6.5,1.4,12.6,4,18.1l0,0l0.5,0.9
		c0.5,1,1,2,1.6,3l37.7,70.7l37.6-70.7c0.6-1,1.1-2,1.6-3l0.5-0.9l0,0C749.4,121.3,750.8,115.2,750.8,108.7z"/>
	<path class="st18" d="M707.2,203.3c-0.7,0-1.4-0.4-1.7-1l-37.7-70.7c-0.6-0.9-1.1-2-1.6-3l-0.5-0.9c-0.1-0.2-0.2-0.3-0.2-0.5
		c-2.6-5.9-4-12.1-4-18.5c0-12.2,4.7-23.6,13.3-32.2c8.6-8.6,20-13.4,32.2-13.4c25.1,0,45.6,20.4,45.6,45.5c0,6.4-1.3,12.6-4,18.5
		c0,0.2-0.1,0.3-0.2,0.5l-0.5,0.9c-0.5,1-1,2-1.6,3l-37.6,70.6C708.6,202.9,707.9,203.3,707.2,203.3L707.2,203.3z M669.4,126.3
		l0.3,0.5c0.5,1,1,2,1.5,2.9l36,67.6l35.9-67.5c0.6-1,1.1-1.9,1.6-2.9l0.3-0.6c0-0.1,0.1-0.2,0.1-0.3c2.5-5.5,3.8-11.3,3.8-17.3
		c0-23-18.7-41.7-41.7-41.7c-11.2,0-21.6,4.3-29.5,12.2c-7.9,7.9-12.2,18.4-12.2,29.5c0,6,1.3,11.8,3.8,17.3
		C669.3,126.1,669.4,126.2,669.4,126.3z"/>
</g>
<g>
	<circle class="st7" cx="707.2" cy="108.2" r="27.2"/>
	<path class="st7" d="M707.2,137.4C707.2,137.4,707.2,137.4,707.2,137.4c-16.1,0-29.1-13.1-29.1-29.1c0-7.8,3-15.1,8.5-20.6
		c5.5-5.5,12.8-8.5,20.6-8.5c16.1,0,29.1,13.1,29.1,29.1c0,7.8-3,15.1-8.5,20.6C722.3,134.3,715,137.4,707.2,137.4z M707.2,83
		c-6.8,0-13.1,2.6-17.9,7.4c-4.8,4.8-7.4,11.1-7.4,17.9c0,13.9,11.3,25.3,25.3,25.3v1.9l0-1.9c6.8,0,13.1-2.6,17.9-7.4
		c4.8-4.8,7.4-11.1,7.4-17.9C732.4,94.3,721.1,83,707.2,83z"/>
</g>
<g>
	<path class="st6" d="M742.6,203.3h-24.1c-1.1,0-1.9-0.9-1.9-1.9c0-1.1,0.9-1.9,1.9-1.9h24.1c1.1,0,1.9,0.9,1.9,1.9
		C744.5,202.5,743.6,203.3,742.6,203.3z"/>
</g>
<g>
	<path class="st6" d="M694.7,203.3h-21.2c-1.1,0-1.9-0.9-1.9-1.9c0-1.1,0.9-1.9,1.9-1.9h21.2c1.1,0,1.9,0.9,1.9,1.9
		C696.7,202.5,695.8,203.3,694.7,203.3z"/>
</g>
<g>
	<path class="st14" d="M170.3,176.7h-54.6c-0.2,0-0.5,0-0.7-0.1c-12.8-4.7-24.4-12.7-33.5-23.2c-12.8-14.8-19.9-33.6-19.9-53.1
		L53.4,21c-0.1-0.5,0.1-1.1,0.5-1.5c0.4-0.4,0.9-0.6,1.4-0.6h175.2c0.5,0,1.1,0.2,1.4,0.6c0.4,0.4,0.5,0.9,0.5,1.5l-8.2,79.5
		c0,19.3-7.1,38.2-19.9,52.9c-9,10.4-20.6,18.4-33.5,23.1C170.7,176.7,170.5,176.7,170.3,176.7z M116,172.9h53.9
		c12.1-4.5,23-12.1,31.6-21.9c12.2-14.1,18.9-32,18.9-50.6l8-77.6h-171l8,77.4c0,18.8,6.7,36.7,19,50.8
		C93,160.8,103.9,168.3,116,172.9z"/>
</g>
<g>
	<path class="st14" d="M92.6,102.2H63.5c-1.1,0-1.9-0.9-1.9-1.9c0-1.1,0.9-1.9,1.9-1.9h29.1c1.1,0,1.9,0.9,1.9,1.9
		C94.5,101.4,93.6,102.2,92.6,102.2z"/>
</g>
<g>
	<path class="st14" d="M222.5,102.2h-29.1c-1.1,0-1.9-0.9-1.9-1.9c0-1.1,0.9-1.9,1.9-1.9h29.1c1.1,0,1.9,0.9,1.9,1.9
		C224.4,101.4,223.5,102.2,222.5,102.2z"/>
</g>
<g>
	<path class="st14" d="M178.5,129.5h-71.1c-1.1,0-1.9-0.9-1.9-1.9V73c0-1.1,0.9-1.9,1.9-1.9h71.1c1.1,0,1.9,0.9,1.9,1.9v54.6
		C180.4,128.7,179.6,129.5,178.5,129.5z M109.4,125.7h67.2V74.9h-67.2V125.7z"/>
</g>
<g>
	<path class="st14" d="M173.8,243.8h-61.6c-0.5,0-1-0.2-1.4-0.6c-0.4-0.4-0.6-0.9-0.5-1.4l3.5-67.1c0.1-1,0.9-1.8,1.9-1.8h54.6
		c1,0,1.9,0.8,1.9,1.8l3.5,67.1c0,0.5-0.2,1-0.5,1.4C174.8,243.6,174.3,243.8,173.8,243.8z M114.2,239.9h57.6l-3.3-63.2h-51
		L114.2,239.9z"/>
</g>
<g>
	<path class="st14" d="M205.3,273.9H80.7c-1.1,0-1.9-0.9-1.9-1.9v-30.1c0-1.1,0.9-1.9,1.9-1.9h124.6c1.1,0,1.9,0.9,1.9,1.9V272
		C207.2,273,206.3,273.9,205.3,273.9z M82.6,270.1h120.7v-26.3H82.6V270.1z"/>
</g>
<g>
	<path class="st14" d="M87.2,154.1l-4.2,0c-24.4-0.1-43.7-7.7-57.4-22.5C0.1,104.1,2.9,61.9,3,60.2l0.1-1.8h20.7
		c13.8,0,22.4,13.1,24.6,17h14.4l2.6,24.8c0,18.8,6.7,36.7,19,50.8L87.2,154.1z M6.8,62.2C6.5,70.5,7,105.9,28.4,129
		c12.2,13.1,29.1,20.3,50.4,21.2c-11.1-14.2-17.2-31.8-17.2-49.8l-2.2-21.1H46.2l-0.5-1c-0.1-0.2-8.3-15.9-21.8-15.9H6.8z"/>
</g>
<g>
	<path class="st14" d="M203.1,154.1C203.1,154.1,203.1,154.1,203.1,154.1l-4.4,0l2.8-3.2c12.2-14.1,18.9-32,18.9-50.6l2.6-25h14.4
		c2.3-3.9,10.9-17,24.6-17h20.7l0.1,1.8c0.1,1.8,3.2,44.1-22.1,71.6C247.1,146.6,227.7,154.1,203.1,154.1z M226.5,79.2l-2.2,21.3
		c0,17.9-6.1,35.4-17.2,49.7c21.6-0.8,38.7-7.8,50.9-21c21.4-23.1,21.5-58.6,21.2-66.9h-17.1c-13.5,0-21.7,15.8-21.8,15.9l-0.5,1.1
		H226.5z"/>
</g>
<g>
	<path class="st14" d="M205.3,258.8h-57.5c-1.1,0-1.9-0.9-1.9-1.9c0-1.1,0.9-1.9,1.9-1.9h57.5c1.1,0,1.9,0.9,1.9,1.9
		C207.2,258,206.3,258.8,205.3,258.8z"/>
</g>
<g>
	<ellipse class="st19" cx="89.5" cy="255.7" rx="68.1" ry="68.1"/>
	<path class="st19" d="M89.5,325.8c-38.6,0-70-31.4-70-70c0-38.6,31.4-70,70-70c38.6,0,70,31.4,70,70
		C159.5,294.4,128.1,325.8,89.5,325.8z M89.5,189.6c-36.5,0-66.2,29.7-66.2,66.2c0,36.5,29.7,66.2,66.2,66.2s66.2-29.7,66.2-66.2
		C155.7,219.2,126,189.6,89.5,189.6z"/>
</g>
<g>
	<g>
		<path class="st20" d="M723.9,420.6l-14.5-20.1c-5.9,0.4-11.8,0-17.5-1.1L675,417.5l-1.2-0.4c-13.9-5-26.5-13.4-36.4-24.2l-0.9-0.9
			l10.2-22.6c-1.6-2.5-3.1-5-4.4-7.6c-1.3-2.6-2.4-5.3-3.4-8.1l-24.2-5.6l-0.2-1.3c-2.6-14.5-1.6-29.6,2.8-43.6l0.4-1.2l24.7-2.5
			c2.6-5.3,5.9-10.2,9.7-14.6l-7.3-23.7l1-0.8c5.6-4.7,11.8-8.8,18.4-12.1c6.6-3.3,13.5-5.7,20.7-7.4l1.2-0.3l14.5,20.1
			c5.9-0.4,11.8,0,17.5,1.1l16.9-18.1l1.2,0.4c13.9,5,26.5,13.4,36.4,24.2l0.9,0.9l-10.2,22.6c1.7,2.5,3.1,5.1,4.4,7.6
			c1.3,2.6,2.4,5.3,3.4,8.1l24.2,5.6l0.2,1.3c2.6,14.4,1.6,29.5-2.8,43.6l-0.4,1.2l-24.7,2.5c-2.6,5.3-5.9,10.2-9.7,14.6l7.3,23.7
			l-1,0.8c-5.6,4.8-11.8,8.8-18.4,12.1c-6.6,3.3-13.5,5.7-20.7,7.4L723.9,420.6z M711.3,396.5l14.3,19.8c6.5-1.6,12.7-3.8,18.6-6.8
			c5.9-2.9,11.5-6.6,16.7-10.8l-7.1-23.3l0.7-0.8c4.1-4.7,7.6-9.9,10.3-15.5l0.5-1l24.3-2.5c3.8-12.8,4.6-26.3,2.5-39.3l-23.8-5.5
			l-0.3-1c-1-3-2.2-5.9-3.5-8.6c-1.3-2.7-2.9-5.4-4.7-8.1l-0.6-0.9l10-22.3c-9.1-9.6-20.4-17.1-32.8-21.8L719.5,266l-1.1-0.2
			c-6.1-1.3-12.4-1.7-18.6-1.2l-1.1,0.1l-14.3-19.8c-6.5,1.6-12.7,3.8-18.6,6.8c-5.9,2.9-11.5,6.6-16.7,10.8l7.1,23.3l-0.7,0.8
			c-4.1,4.6-7.6,9.9-10.3,15.5l-0.5,1l-24.3,2.5c-3.8,12.7-4.6,26.3-2.5,39.3l23.8,5.5l0.3,1c1,3,2.2,5.9,3.6,8.6
			c1.4,2.7,3,5.4,4.7,8.1l0.6,0.9l-10,22.3c9.1,9.6,20.4,17.1,32.8,21.8l16.6-17.8l1.1,0.2c6.1,1.3,12.4,1.7,18.6,1.2L711.3,396.5z
			 M705.1,376.4c-17.5,0-33.2-9.7-41-25.4c-11.2-22.6-2-50.1,20.6-61.4c6.4-3.2,13.2-4.8,20.3-4.8c17.5,0,33.3,9.7,41,25.4
			c11.2,22.6,2,50.1-20.7,61.3C719,374.8,712.1,376.4,705.1,376.4z M705,288.7c-6.5,0-12.7,1.5-18.6,4.4
			c-20.7,10.3-29.2,35.5-18.9,56.2c7.1,14.4,21.5,23.3,37.6,23.3c6.5,0,12.8-1.5,18.6-4.4c20.7-10.3,29.2-35.5,18.9-56.2
			C735.5,297.6,721.1,288.7,705,288.7z"/>
	</g>
	<g>
		<path class="st20" d="M705.1,376.4C705.1,376.4,705.1,376.4,705.1,376.4c-17.5,0-33.2-9.7-41-25.4c-11.2-22.6-2-50.1,20.6-61.4
			c6.4-3.2,13.2-4.8,20.3-4.8c17.5,0,33.3,9.7,41,25.4c11.2,22.6,2,50.1-20.7,61.3C719,374.8,712.1,376.4,705.1,376.4z M705,288.7
			c-6.5,0-12.7,1.5-18.6,4.4c-20.7,10.3-29.2,35.5-18.9,56.2c7.1,14.4,21.5,23.3,37.6,23.3h0c6.5,0,12.7-1.5,18.6-4.4
			c20.7-10.3,29.2-35.5,18.9-56.2C735.5,297.6,721.1,288.7,705,288.7z"/>
	</g>
</g>
<g>
	<g>
		<path class="st14" d="M547.5,710.8c-3.4,0-6.8-0.4-10.2-1.2l-1.2-0.3l-2.1-11.9c-2.4-1-4.6-2.3-6.7-3.8l-11.3,4.4l-0.9-0.9
			c-5.1-5.2-9-11.6-11.1-18.6l-0.4-1.2l9.3-7.8c-0.2-1.3-0.2-2.6-0.3-3.8c0-1.3,0-2.6,0.2-3.8l-9.5-7.6l0.3-1.2
			c1.9-7,5.6-13.6,10.6-18.9l0.9-0.9l11.4,4.1c2.1-1.6,4.3-2.9,6.6-3.9l1.8-12l1.2-0.3c3.5-0.9,7.2-1.4,10.8-1.5l0.6,0
			c3.4,0,6.9,0.4,10.2,1.2l1.2,0.3l2.1,11.9c2.4,1,4.6,2.3,6.7,3.8l11.3-4.4l0.9,0.9c5.1,5.2,9,11.6,11.1,18.6l0.4,1.2l-9.3,7.8
			c0.2,1.3,0.3,2.6,0.3,3.8c0,1.3,0,2.5-0.2,3.8l9.5,7.6l-0.3,1.2c-1.9,7-5.6,13.6-10.6,18.9l-0.9,0.9l-11.4-4.1
			c-2,1.5-4.2,2.9-6.6,3.9l-1.8,12l-1.2,0.3c-3.5,0.9-7.2,1.4-10.8,1.5L547.5,710.8z M539.4,706.2c2.7,0.5,5.4,0.8,8.1,0.8l0.6,0
			c2.9,0,5.8-0.4,8.7-1l1.7-11.6l1-0.4c2.7-1.1,5.2-2.7,7.5-4.5l0.8-0.7l11,4c3.9-4.4,6.8-9.6,8.5-15.2l-9.2-7.3l0.1-1.1
			c0.2-1.5,0.3-3,0.3-4.4c0-1.4-0.1-2.8-0.4-4.4l-0.2-1.1l9-7.6c-1.9-5.5-4.9-10.6-8.9-14.9l-10.9,4.3l-0.9-0.7
			c-2.3-1.8-4.9-3.2-7.7-4.3l-1-0.4l-2.1-11.5c-2.7-0.5-5.4-0.8-8.1-0.8l-0.6,0c-2.9,0-5.8,0.4-8.7,1l-1.7,11.6l-1,0.4
			c-2.7,1.1-5.2,2.6-7.5,4.5l-0.8,0.7l-11-4c-3.9,4.4-6.8,9.6-8.5,15.2l9.2,7.3l-0.1,1.1c-0.2,1.5-0.3,3-0.2,4.4
			c0,1.5,0.1,2.9,0.4,4.4l0.2,1.1l-9,7.6c1.9,5.5,4.9,10.6,8.9,14.9l10.9-4.3l0.9,0.7c2.3,1.8,4.9,3.2,7.7,4.3l1,0.4L539.4,706.2z
			 M547.8,688.4c-12.9,0-23.3-10.3-23.5-22.9c-0.2-12.8,10.1-23.3,22.9-23.5l0.3,0c12.6,0,23,10.3,23.2,22.9
			C570.9,677.7,560.6,688.2,547.8,688.4L547.8,688.4z M547.5,644l-0.3,1.9c-10.7,0.2-19.2,9-19.1,19.6c0.1,10.5,8.8,19.1,19.3,19.1
			c10.9-0.2,19.5-9,19.3-19.6c-0.2-10.5-8.8-19.1-19.3-19.1V644z"/>
	</g>
	<g>
		<path class="st14" d="M547.5,688.4c-12.6,0-23-10.3-23.2-22.9c-0.2-12.8,10.1-23.3,22.9-23.5c0,0,0,0,0,0
			c12.9,0,23.3,10.2,23.5,22.8c0.2,12.8-10.1,23.3-22.9,23.5L547.5,688.4z M547.5,645.9c-10.9,0.2-19.5,9-19.3,19.6
			c0.1,10.5,8.8,19.1,19.3,19.1v1.9l0.3-1.9c10.7-0.2,19.2-9,19.1-19.6C566.7,654.4,558,645.9,547.5,645.9z"/>
	</g>
</g>
<g>
	<g>
		<path class="st17" d="M589.4,213.4l77.4,20.7l-12.4,12.4l39,39l30.8,30.8c0.1,8.2-2.9,16.5-9.2,22.8c-6.3,6.3-14.5,9.3-22.8,9.2
			l-30.8-30.8l-39-39l-12.4,12.4L589.4,213.4z"/>
		<path class="st17" d="M692.8,350.1l-1.4,0l-68.9-68.9l-13.4,13.4l-22.5-83.8l83.8,22.5l-13.4,13.4l68.9,68.9l0,0.8
			c0.2,9.1-3.3,17.7-9.7,24.1C710.1,346.7,701.7,350.1,692.8,350.1z M622.5,275.7l70.6,70.6c7.8-0.1,15.1-3.1,20.6-8.6
			c5.5-5.5,8.5-12.8,8.6-20.6l-70.5-70.6l11.4-11.4l-70.9-19l19,70.9L622.5,275.7z"/>
	</g>
	<g>
		<line class="st17" x1="622.5" y1="278.4" x2="638.4" y2="262.5"/>
		
			<rect x="619.2" y="268.5" transform="matrix(0.7073 -0.707 0.707 0.7073 -6.6313 524.8816)" class="st17" width="22.6" height="3.8"/>
	</g>
</g>
<g>
	<rect x="349.7" y="9.2" class="st17" width="196.4" height="121.5"/>
	<path class="st17" d="M548,132.6H347.8V7.2H548V132.6z M351.6,128.7h192.6V11.1H351.6V128.7z"/>
</g>
<g>
	<polygon class="st21" points="463.7,76.1 432.2,76.1 427.9,72.6 349.7,130.7 546.1,130.7 468,72.6 	"/>
	<path class="st21" d="M551.9,132.6h-208l84-62.4l4.9,4H463l4.9-4L551.9,132.6z M355.5,128.7h184.8L468,75l-3.7,3h-32.9l-3.7-3
		L355.5,128.7z"/>
</g>
<g>
	<polygon class="st6" points="349.7,9.2 427.9,72.6 432.2,76.1 463.7,76.1 468,72.6 546.1,9.2 	"/>
	<path class="st6" d="M464.3,78h-32.9l-4.8-3.9L344.3,7.2h207.3L464.3,78z M432.9,74.1H463l77.7-63H355.1L432.9,74.1z"/>
</g>
<g>
	<rect x="377.1" y="85" class="st7" width="31.5" height="3.8"/>
</g>
<g>
	<rect x="487.2" y="85" class="st7" width="31.5" height="3.8"/>
</g>
<g>
	<g>
		<polygon class="st7" points="78.8,299.7 37.4,258.2 50.6,244.9 78.8,273.1 128.3,223.7 141.6,237 		"/>
		<path class="st7" d="M78.8,302.4l-44.2-44.2l16-16l28.2,28.2l49.5-49.4l16,16L78.8,302.4z M40.1,258.2L78.8,297l60-60l-10.6-10.6
			l-49.5,49.4l-28.2-28.2L40.1,258.2z"/>
	</g>
</g>
<g>
	<circle class="st7" cx="57.7" cy="683.8" r="14.3"/>
	<path class="st7" d="M57.7,700c-9,0-16.2-7.3-16.2-16.2c0-9,7.3-16.2,16.2-16.2c9,0,16.2,7.3,16.2,16.2
		C73.9,692.8,66.7,700,57.7,700z M57.7,671.4c-6.8,0-12.4,5.6-12.4,12.4c0,6.8,5.6,12.4,12.4,12.4c6.8,0,12.4-5.6,12.4-12.4
		C70.1,677,64.5,671.4,57.7,671.4z"/>
</g>
<g>
	<circle class="st7" cx="111.2" cy="683.8" r="14.3"/>
	<path class="st7" d="M111.2,700c-9,0-16.2-7.3-16.2-16.2c0-9,7.3-16.2,16.2-16.2c9,0,16.2,7.3,16.2,16.2
		C127.4,692.8,120.1,700,111.2,700z M111.2,671.4c-6.8,0-12.4,5.6-12.4,12.4c0,6.8,5.6,12.4,12.4,12.4c6.8,0,12.4-5.6,12.4-12.4
		C123.5,677,118,671.4,111.2,671.4z"/>
</g>
<g>
	<circle class="st7" cx="164.6" cy="683.8" r="14.3"/>
	<path class="st7" d="M164.6,700c-9,0-16.2-7.3-16.2-16.2c0-9,7.3-16.2,16.2-16.2s16.2,7.3,16.2,16.2
		C180.8,692.8,173.6,700,164.6,700z M164.6,671.4c-6.8,0-12.4,5.6-12.4,12.4c0,6.8,5.6,12.4,12.4,12.4c6.8,0,12.4-5.6,12.4-12.4
		C177,677,171.4,671.4,164.6,671.4z"/>
</g>
</svg>
