<?xml version="1.0" encoding="utf-8"?>
<!-- Generator: Adobe Illustrator 21.0.2, SVG Export Plug-In . SVG Version: 6.00 Build 0)  -->
<svg version="1.1" id="Слой_1" xmlns="http://www.w3.org/2000/svg" xmlns:xlink="http://www.w3.org/1999/xlink" x="0px" y="0px"
	 viewBox="0 0 1000 824" style="enable-background:new 0 0 1000 824;" xml:space="preserve">
<style type="text/css">
	.st0{fill:#66BB6A;}
	.st1{fill:#D4E157;}
	.st2{fill:#FFEE58;}
	.st3{fill:#FFCA28;}
	.st4{fill:#FFAA00;}
	.st5{fill:#FCC208;}
	.st6{fill:#FF9700;}
	.st7{fill:#F9A30B;}
	.st8{fill:#F5E210;}
	.st9{fill:#FFC200;}
	.st10{fill:#FFC700;}
	.st11{fill:#FFFFFF;}
	.st12{fill:#71DAFF;}
	.st13{fill:#8FE3F9;}
	.st14{fill:#4AC8FF;}
	.st15{fill:#23A7F1;}
	.st16{fill:#F49D56;}
	.st17{fill:#B1ECFA;}
	.st18{fill:#201C6F;}
	.st19{fill:#1B66B3;}
	.st20{fill:#3A3A3A;}
	.st21{fill:#3F3F3F;}
	.st22{fill:#E2340C;}
	.st23{fill:#3C3C99;}
	.st24{fill:#F78A81;}
</style>
<g>
	<polygon class="st0" points="27.8,679 199.1,679 199.1,655.6 5,655.6 5,796.7 27.8,796.7 	"/>
	<polygon class="st1" points="221.9,561.3 393.2,561.3 393.2,537.8 199.1,537.8 199.1,679 221.9,679 	"/>
	<polygon class="st2" points="416.4,444.8 590.6,444.8 590.6,421.6 393.2,421.6 393.2,561.1 416.4,561.1 	"/>
	<polygon class="st3" points="613.8,328.3 788.1,328.3 788.1,305.1 590.6,305.1 590.6,444.7 613.8,444.7 	"/>
	<polygon class="st4" points="811.3,212 985.6,212 985.6,188.8 788.1,188.8 788.1,328.3 811.3,328.3 	"/>
	<g>
		<path class="st4" d="M920.1,108.8c14.8-0.9,27.9-5.8,39.2-14.8c21.1-16.7,33-45.6,36.7-72.6l-50.3,4.9c-2.4,7-0.1,11.7,5.1,14.7
			c2,1.2,4.6,0.2,5.4-2c0.6-1.7-0.1-3.5-1.6-4.4c-0.9-0.5-1.4-1-1.8-1.5l34.4-3.4c-1.4,6.7-4.8,19.7-11.7,32.7
			c-13,24.4-31.7,37.5-55.7,39L920.1,108.8z"/>
		<path class="st4" d="M872.1,108.2c-14.7-1.3-27.8-6.6-38.7-15.8c-20.6-17.3-31.7-46.5-34.7-73.6l50.1,6.3
			c2.2,7.1-0.2,11.7-5.5,14.5c-2.1,1.1-4.7,0.1-5.4-2.2c-0.5-1.7,0.2-3.5,1.7-4.4c0.9-0.5,1.5-1,1.9-1.4l-34.3-4.3
			c1.2,6.7,4.3,19.8,10.8,33c12.3,24.8,30.7,38.4,54.6,40.5L872.1,108.2z"/>
		<polygon class="st5" points="880,188.3 910.1,188.7 905,116.2 887.2,116 880,188.2 		"/>
		<polygon class="st6" points="879.9,188.2 895.1,188.4 896.1,116.1 887,116 		"/>
		<path class="st7" d="M874.6,188.2l40.8,0.6c2.4,0,4.5-1.9,4.5-4.4l0.1-4.5l-49.6-0.7l-0.1,4.5
			C870.2,186.2,872.2,188.2,874.6,188.2L874.6,188.2z"/>
		<polygon class="st8" points="870.3,179.2 919.9,179.9 908.4,171 881.3,170.6 		"/>
		
			<rect x="887.8" y="-24.1" transform="matrix(1.383188e-02 -0.9999 0.9999 1.383188e-02 855.6758 925.8714)" class="st9" width="18.8" height="106.4"/>
		<path class="st10" d="M899.4,38.6l-1,75.6l16,0.2c19.4-11.2,33.9-40.2,36-75.1L899.4,38.6z"/>
		<path class="st4" d="M843.9,37.8c1.1,34.9,14.8,64.3,33.9,76.1l20.5,0.3l1-75.6L843.9,37.8z"/>
		<path class="st11" d="M926.8,54c0,2.5,2,4.6,4.5,4.6c2.5,0,4.6-2,4.6-4.5c0-2.5-2-4.6-4.5-4.6C928.9,49.5,926.9,51.5,926.8,54
			L926.8,54z"/>
		<path class="st9" d="M869.5,122.3c0,2.6,2,4.7,4.6,4.8l43.5,0.6c2.6,0,4.7-2,4.8-4.6l0.1-3.9c0-2.6-2-4.7-4.6-4.8l-43.5-0.6
			c-2.6,0-4.7,2-4.8,4.6L869.5,122.3z"/>
	</g>
	<polygon class="st12" points="668.9,161 652.4,208.7 645.3,206.3 652.3,185.9 611.9,206.3 598.6,179.8 639,159.4 618.4,153 
		620.7,145.8 	"/>
	<polygon class="st13" points="781.7,104.1 765.3,151.8 758.1,149.4 765.2,129.1 724.8,149.4 711.4,122.9 751.8,102.6 731.3,96.1 
		733.6,88.9 	"/>
	<polygon class="st14" points="556,217.8 539.6,265.6 532.5,263.1 539.5,242.8 499.1,263.2 485.7,236.7 526.1,216.3 505.6,209.9 
		507.9,202.7 	"/>
	<polygon class="st15" points="443.2,274.7 426.7,322.5 419.6,320 426.6,299.7 386.3,320 372.9,293.5 413.3,273.2 392.7,266.7 
		395,259.5 	"/>
	<g>
		<g>
			<path class="st16" d="M341.8,321.2l-13.4,1.1c-2.3,0.2-2,3.7,0.3,3.5l13.4-1.1C344.4,324.5,344.1,321,341.8,321.2z"/>
			<path class="st16" d="M342.4,329.8l-13.4,0c-2.3,0-2.3,3.5,0,3.5l13.4,0C344.7,333.3,344.7,329.8,342.4,329.8z"/>
			<path class="st16" d="M339.3,333.7l-11.1-0.1c-1.9,0-2,2.9,0,2.9l11.1,0.1C341.2,336.6,341.2,333.8,339.3,333.7z"/>
			<path class="st16" d="M324.8,321.5c0.7,0.7,5.6,0.7,5.6,0.7c0.2,4.2,0.2,10.5-1.6,14.3c0,0-13.1,1.5-13.8-1.6c-2,0-6.6,0-8,0
				l0.8-11.7c2.8-0.3,5.3-0.4,7.5-0.7c2-5.3,9.1-5.7,13.1-7.8c2-1,3.5-1.9,3.5-1.9s2.1,1.7-0.2,3.7
				C329.4,318.5,323.4,320.2,324.8,321.5z"/>
			<path class="st16" d="M343.2,325.4l-13.4,0.6c-2.3,0.1-2.2,3.6,0.2,3.5l13.4-0.6C345.7,328.8,345.5,325.3,343.2,325.4z"/>
		</g>
		<polygon class="st17" points="244.3,281.7 265.8,327.1 312.8,318.6 316.4,339.3 252.4,355.2 231.3,316.2 		"/>
		<polygon class="st16" points="141.6,290.5 106.3,311.8 111.2,323.5 157.4,299 		"/>
		<path class="st18" d="M152.4,377.6c0,0,35.7-88.9,47.6-100.8l29.8-14.3l20.6,18.2c0,0-5.8,30.6-10.1,39.6L206.6,390L152.4,377.6z"
			/>
		<path class="st16" d="M227.1,231.6c0.1,10.1,6,18.1,6,21c0,1.8-3.3,9.9-3.3,9.9l19.1,25.2l6.4-18.5c0,0,4.4,3.8,8.3,5.1
			c0,0,6.6,3.1,9-0.4c3.2-10.2,4-11.3,6.5-16.8c5.5-0.8,7.1-3.9,2-10.6C297.8,201.8,226.8,190.9,227.1,231.6z"/>
		<path class="st19" d="M150.7,402.9c1,2.3-11.7,61.8-11.7,61.8l-92.1,49.6l6.7,21.5c0,0,119.4-46.7,127.7-55.9L195,415L150.7,402.9
			z"/>
		<path class="st17" d="M128.4,295.8l28.1-20.1c0,0,19.9-2.8,38.9-4.2c50.7-3.7,41.2,27.9,32.5,28l-65.2,0.8L138.1,313L128.4,295.8z
			"/>
		<path class="st20" d="M286.6,234.3l-25.6-5.4c0,0-9.4,14.8-27.9,23.7c0,0-12.6-16.8-1.8-36c0,0,9-17.5,32.2-12.8l-2.7,3.2
			c0,0-0.6-4.9,13.5,1.8C274.4,208.8,289.4,216.9,286.6,234.3z"/>
		<path class="st16" d="M252,239.9c0,0-1.6-6.1-6.3-6.2c-6.2-0.1-1.4,15.2,1.9,15.3L252,239.9z"/>
		<polygon class="st17" points="239.7,275.7 244.5,307.2 248.8,287.7 		"/>
		<path class="st21" d="M269.6,520.9c0,0-0.2,9.5,6.7,16.4l45.7-13.3c0,0,0.8-10.5-10.7-8l-20.8,1.8l-5.7-2.4L269.6,520.9z"/>
		<path class="st21" d="M47.9,517.6c0,0-10.7,0.8-17.4,7.9l15,45.2c0,0,10.5,0.4,7.6-11L50.5,539l2.2-5.7L47.9,517.6z"/>
		<polygon class="st22" points="244.3,281.7 249.8,284.7 248.2,292.2 		"/>
		<polygon class="st22" points="246.5,287.6 232.4,330.4 236.2,342 242.2,336.9 248.2,292.2 		"/>
		<path class="st23" d="M152.4,377.6c-5.4,10.9-4.8,25.4,4.1,34.2c13.1,12.9,97.7,4.9,97.7,4.9c0,0,5.3,80.7,12.1,107l25.4-8.3
			c0,0-4.1-127.1-13.7-133.1L152.4,377.6z"/>
		<g>
			<path class="st16" d="M122.3,317.3l-11.2,6.2c7.8,8.2-2.1,12.4-3.8,13.4c0,0-5.7-2.4-2.8-4l-3.8-3.3l-5.6-11.7l21-11.6
				L122.3,317.3z"/>
			<g>
				<path class="st16" d="M96.3,332.1l4.6-2.5c3.9-2.1,6.6,3.6,3.1,5.6l-4.6,2.5C95.8,339.6,92.4,334.2,96.3,332.1z"/>
				<path class="st16" d="M94.2,328.3l4.6-2.5c3.9-2.1,6.6,3.6,3.1,5.6l-4.6,2.5C93.7,335.8,90.3,330.4,94.2,328.3z"/>
				<path class="st16" d="M92.1,324.5l4.6-2.5c3.9-2.1,6.6,3.6,3.1,5.6l-4.6,2.5C91.6,332,88.2,326.6,92.1,324.5z"/>
				<path class="st16" d="M90,320.7l4.6-2.5c3.9-2.1,6.6,3.6,3.1,5.6l-4.6,2.5C89.5,328.3,86.1,322.9,90,320.7z"/>
			</g>
		</g>
	</g>
	<g>
		<path class="st0" d="M149.9,766.7v-4.9h-4.3c-0.2-2.3-0.5-4.4-1-6.6l4.1-1.3l-1.5-4.7l-4.1,1.3c-0.8-2.1-1.8-4.1-3-5.9l3.5-2.5
			l-2.7-3.8l-0.2-0.2l0,0l-3.4,2.5c-1.4-1.7-3-3.3-4.7-4.7l2.5-3.4l0,0l-0.2-0.2l-3.8-2.8l-2.5,3.5c-1.9-1.2-3.8-2.2-5.9-3l1.3-4.1
			l-4.7-1.5l-1.3,4.1c-2.1-0.5-4.3-0.9-6.6-1V723h-4.9v4.3c-2.2,0.1-4.4,0.5-6.6,1l-1.3-4.1l-4.7,1.5l1.3,4.1
			c-2.1,0.8-4.1,1.9-5.9,3l-2.5-3.5l-4,2.9l2.5,3.5c-1.7,1.4-3.3,3-4.7,4.7L77,738l0,0l-2.9,4l3.5,2.5c-1.2,1.9-2.2,3.8-3,5.9
			l-4.1-1.3l-1.5,4.7l4.1,1.3c-0.5,2.1-0.9,4.3-1,6.6h-4.3v4.9h4.3c0.1,2.2,0.5,4.4,1,6.6l-4.1,1.3l1.5,4.7l4.1-1.3
			c0.8,2.1,1.8,4,3,5.9l-3.5,2.5l2.9,4l0.6-0.5l2.8-2.1c1.4,1.7,3,3.3,4.7,4.7l-2.1,2.8l-0.5,0.6l4,2.9l2.5-3.5
			c1.9,1.2,3.8,2.2,5.9,3l-1.3,4.1l4.7,1.5l1.3-4.1c2.1,0.5,4.3,0.9,6.6,1v4.3h4.9V801c2.3-0.1,4.4-0.5,6.6-1l1.3,4.1l4.7-1.5
			l-1.3-4.1c2.1-0.8,4.1-1.8,5.9-3l2.5,3.5l4-2.9l-2.5-3.5c1.7-1.4,3.3-3,4.7-4.7l3.5,2.5l2.9-4l-3.5-2.5c1.2-1.9,2.2-3.8,3-5.9
			l4.1,1.3l1.5-4.7l-4.1-1.3c0.5-2.1,0.9-4.3,1-6.6H149.9z M108.8,792.5c-15.7,0-28.4-12.7-28.4-28.4c0-15.7,12.7-28.4,28.4-28.4
			c15.7,0,28.4,12.7,28.4,28.4C137.1,779.8,124.4,792.5,108.8,792.5z"/>
		<path class="st0" d="M108.8,739c-13.9,0-25.2,11.3-25.2,25.2c0,13.9,11.3,25.2,25.2,25.2c13.9,0,25.2-11.3,25.2-25.2
			C134,750.3,122.7,739,108.8,739z M108.8,773c-4.9,0-8.9-4-8.9-8.9c0-4.9,4-8.9,8.9-8.9c4.9,0,8.9,4,8.9,8.9
			C117.7,769.1,113.7,773,108.8,773z"/>
	</g>
	<g>
		<path class="st2" d="M516.9,501.7c0,7.7-6.3,15.7-14,15.7c-7.7,0-14-8-14-15.7c0-7.7,6.3-14,14-14
			C510.7,487.7,516.9,493.9,516.9,501.7z"/>
		<path class="st2" d="M522.7,552.4c2.6,0,4.6-2.1,4.6-4.6v-3.2c0-10-7.2-24.7-24.4-24.7c-16.5,0-24.4,14.2-24.4,24.3v3.7
			c0,2.6,2.1,4.6,4.6,4.6H522.7z"/>
		<path class="st2" d="M483.7,506.4c0,5.6-4.6,12-10.2,12c-5.6,0-10.2-6.3-10.2-12c0-5.6,4.6-10.2,10.2-10.2
			C479.1,496.2,483.7,500.7,483.7,506.4z"/>
		<path class="st2" d="M485.2,524c-3.1-2.7-7.3-4.4-11.8-4.4c-9.3,0-16.9,7.1-17.7,16.2h-0.1l0,0c0,4.2,3.4,7.6,7.6,7.6h13
			C476.2,535.3,479.9,528.4,485.2,524z"/>
		<path class="st2" d="M522.2,506.4c0,5.6,4.6,12,10.2,12c5.6,0,10.2-6.3,10.2-12c0-5.6-4.6-10.2-10.2-10.2
			C526.7,496.2,522.2,500.7,522.2,506.4z"/>
		<path class="st2" d="M520.6,524c3.1-2.7,7.3-4.4,11.8-4.4c9.3,0,16.9,7.1,17.7,16.2h0.1l0,0c0,4.2-3.4,7.6-7.6,7.6h-13
			C529.7,535.3,526,528.4,520.6,524z"/>
	</g>
	<g>
		<g>
			<path class="st24" d="M912.9,345.6h-24.6v-17.4c0-3.2,2.6-5.8,5.8-5.8h13c3.2,0,5.8,2.6,5.8,5.8V345.6z"/>
		</g>
		<path class="st24" d="M914,353.7h-26.8c-0.9,0-1.6-1.4-1.6-3.1v-0.1c0-1.7,0.7-3.1,1.6-3.1H914c0.9,0,1.6,1.4,1.6,3.1v0.1
			C915.6,352.3,914.8,353.7,914,353.7z"/>
		<path class="st24" d="M920.5,263.2h-39.9c-1.1,0-2,0.7-2,1.5v0c0,0.8,0.9,1.5,2,1.5h39.9c1.1,0,2-0.7,2-1.5v0
			C922.5,263.8,921.6,263.2,920.5,263.2z"/>
		<path class="st24" d="M893.5,316.2v4.2h14.1v-4.2c-2.3,1.3-4.6,1.9-7,1.9C898.1,318.2,895.8,317.5,893.5,316.2z"/>
		<path class="st24" d="M930.4,273.1c-0.9-1.2-2.3-1.9-3.8-1.9h-6.1c-0.1-1-0.3-2.1-0.4-3.1h-38.9c-0.2,1-0.3,2-0.4,3.1H874
			c-1.5,0-2.9,0.7-3.8,1.9c-0.9,1.2-1.3,2.7-0.9,4.2l4.1,16.7c1.3,5.1,5.8,8.6,11,8.6h0.4c2.3,5.1,5.3,9.1,8.7,11.4
			c2.2,1.5,4.6,2.3,7,2.3c2.5,0,4.8-0.8,7-2.3c3.4-2.3,6.5-6.3,8.7-11.4c5.2-0.1,9.6-3.6,10.9-8.6l4.1-16.7
			C931.7,275.8,931.3,274.3,930.4,273.1z M883.5,299.7c-3.5-0.4-6.4-2.9-7.3-6.4l-4.1-16.7c-0.1-0.6,0-1.2,0.4-1.7s1-0.8,1.6-0.8
			h6.4c-0.1,1.6-0.2,3.3-0.2,5c0,7.5,1.2,14.5,3.4,20.4V299.7z M895.4,308.3c-6.5-11-7.8-22.7-7.6-32.1c0-0.5,0.4-0.9,0.9-0.9
			c0,0,0,0,0,0h0c0.5,0,0.9,0.5,0.9,1c-0.3,9.3,0.3,21.5,6.6,32.1H895.4z M928.5,276.6l-4.1,16.7c-0.8,3.3-3.6,5.7-6.9,6.3
			c2.1-5.9,3.4-12.9,3.4-20.5c0-1.7-0.1-3.4-0.2-5h5.9c0.6,0,1.2,0.3,1.6,0.8C928.5,275.4,928.7,276,928.5,276.6z"/>
	</g>
	<g>
		<path class="st3" d="M708.9,374.9v45.6l32.2-32.2C732.8,380.2,721.4,375.2,708.9,374.9z"/>
		<path class="st3" d="M736.5,461.5l-32.2-32.2v-45.6c-12.5,0.3-23.8,5.3-32.2,13.4l0,0c-8.1,8.4-13.1,19.7-13.4,32.2
			c0.3,12.5,5.3,23.8,13.4,32.2v0c8.4,8.1,19.7,13.1,32.2,13.3C716.8,474.6,728.1,469.5,736.5,461.5z"/>
		<path class="st3" d="M754.7,427.3L754.7,427.3L754.7,427.3c-0.3-12.5-5.3-23.8-13.4-32.2l-32.2,32.2l0,0l0,0l0,0l0,0l32.2,32.2
			C749.4,451.1,754.5,439.8,754.7,427.3L754.7,427.3L754.7,427.3z"/>
	</g>
	<g>
		<rect x="250.7" y="672.3" class="st1" width="123.9" height="6.7"/>
		<path class="st1" d="M363.4,637.4c-1,0-2,0.2-2.9,0.6l-15-16.4c0.9-1.3,1.4-2.9,1.4-4.5c0-4.4-3.6-8-8-8c-4.4,0-8,3.6-8,8
			c0,2,0.7,3.8,1.9,5.2l-21.1,28.3c-1-0.4-2.1-0.7-3.2-0.7c-1.4,0-2.7,0.3-3.8,1l-17.9-20.4c0.9-1.3,1.5-2.9,1.5-4.7
			c0-4.4-3.6-8-8-8c-4.4,0-8,3.6-8,8c0,1.8,0.6,3.4,1.6,4.7l-8.8,10.2c-1.2-0.7-2.6-1.1-4.1-1.1c-4.4,0-8,3.6-8,8c0,4.4,3.6,8,8,8
			c4.4,0,8-3.6,8-8c0-1.6-0.5-3.2-1.3-4.4l8.9-10.3c1.1,0.6,2.4,0.9,3.7,0.9c1.4,0,2.7-0.3,3.8-1l17.9,20.4
			c-0.9,1.3-1.5,2.9-1.5,4.7c0,4.4,3.6,8,8,8c4.4,0,8-3.6,8-8c0-2-0.7-3.8-1.9-5.2l21.1-28.3c1,0.4,2.1,0.7,3.2,0.7
			c1.4,0,2.8-0.4,3.9-1l14.6,16.1c-1.3,1.4-2.1,3.3-2.1,5.4c0,4.4,3.6,8,8,8c4.4,0,8-3.6,8-8C371.3,640.9,367.8,637.4,363.4,637.4z"
			/>
	</g>
	<g>
		<path class="st0" d="M76.9,709.9c0,1.6-0.4,3.1-1.2,4.3c-0.8,1.3-2,2.2-3.6,2.9c-1.6,0.7-3.4,1.1-5.5,1.1c-1.8,0-3.2-0.1-4.4-0.4
			c-1.2-0.2-2.4-0.7-3.7-1.3v-6.3c1.4,0.7,2.8,1.2,4.2,1.6c1.5,0.4,2.8,0.6,4,0.6c1.1,0,1.8-0.2,2.3-0.5c0.5-0.4,0.7-0.8,0.7-1.4
			c0-0.4-0.1-0.7-0.3-0.9c-0.2-0.3-0.5-0.5-1-0.8c-0.4-0.3-1.6-0.8-3.5-1.7c-1.7-0.8-3-1.5-3.9-2.3c-0.9-0.7-1.5-1.6-1.9-2.5
			s-0.6-2.1-0.6-3.4c0-2.4,0.9-4.3,2.6-5.7c1.8-1.4,4.2-2,7.3-2c2.7,0,5.5,0.6,8.3,1.9l-2.2,5.5c-2.5-1.1-4.6-1.7-6.4-1.7
			c-0.9,0-1.6,0.2-2,0.5c-0.4,0.3-0.6,0.7-0.6,1.2c0,0.5,0.3,1,0.8,1.4c0.5,0.4,2,1.2,4.3,2.2c2.3,1,3.8,2.1,4.7,3.3
			C76.4,706.7,76.9,708.2,76.9,709.9z"/>
		<path class="st0" d="M92.5,717.9h-7.1v-20.5H79v-5.8h19.9v5.8h-6.4V717.9z"/>
		<path class="st0" d="M118.3,717.9h-15.6v-26.3h15.6v5.7h-8.5v4.1h7.9v5.7h-7.9v5h8.5V717.9z"/>
		<path class="st0" d="M142,700c0,2.9-0.9,5.2-2.6,6.8c-1.7,1.6-4.2,2.4-7.4,2.4h-2v8.7h-7.1v-26.3h9.1c3.3,0,5.8,0.7,7.5,2.2
			C141.2,695.3,142,697.3,142,700z M130,703.4h1.3c1.1,0,1.9-0.3,2.5-0.9c0.6-0.6,0.9-1.4,0.9-2.5c0-1.8-1-2.7-3-2.7H130V703.4z"/>
		<path class="st0" d="M169.9,717.9h-7.2V704c0-1.7,0-3.2,0.1-4.6c-0.4,0.5-1,1.1-1.7,1.7l-3,2.5l-3.7-4.5l9-7.4h6.4V717.9z"/>
	</g>
	<g>
		<path class="st1" d="M273.3,590.3c0,1.6-0.4,3.1-1.2,4.3c-0.8,1.3-2,2.2-3.6,2.9c-1.6,0.7-3.4,1.1-5.5,1.1c-1.8,0-3.2-0.1-4.4-0.4
			c-1.2-0.2-2.4-0.7-3.7-1.3v-6.3c1.4,0.7,2.8,1.2,4.2,1.6c1.5,0.4,2.8,0.6,4,0.6c1.1,0,1.8-0.2,2.3-0.5c0.5-0.4,0.7-0.8,0.7-1.4
			c0-0.4-0.1-0.7-0.3-0.9c-0.2-0.3-0.5-0.5-1-0.8c-0.4-0.3-1.6-0.8-3.5-1.7c-1.7-0.8-3-1.5-3.9-2.3c-0.9-0.7-1.5-1.6-1.9-2.5
			c-0.4-0.9-0.6-2.1-0.6-3.4c0-2.4,0.9-4.3,2.6-5.7c1.8-1.4,4.2-2,7.3-2c2.7,0,5.5,0.6,8.3,1.9l-2.2,5.5c-2.5-1.1-4.6-1.7-6.4-1.7
			c-0.9,0-1.6,0.2-2,0.5c-0.4,0.3-0.6,0.7-0.6,1.2c0,0.5,0.3,1,0.8,1.4s2,1.2,4.3,2.2c2.3,1,3.8,2.1,4.7,3.3
			C272.8,587,273.3,588.5,273.3,590.3z"/>
		<path class="st1" d="M288.9,598.3h-7.1v-20.5h-6.4V572h19.9v5.8h-6.4V598.3z"/>
		<path class="st1" d="M314.7,598.3h-15.6V572h15.6v5.7h-8.5v4.1h7.9v5.7h-7.9v5h8.5V598.3z"/>
		<path class="st1" d="M338.4,580.3c0,2.9-0.9,5.2-2.6,6.8c-1.7,1.6-4.2,2.4-7.4,2.4h-2v8.7h-7.1V572h9.1c3.3,0,5.8,0.7,7.5,2.2
			C337.6,575.6,338.4,577.7,338.4,580.3z M326.4,583.8h1.3c1.1,0,1.9-0.3,2.5-0.9c0.6-0.6,0.9-1.4,0.9-2.5c0-1.8-1-2.7-3-2.7h-1.8
			V583.8z"/>
		<path class="st1" d="M369.5,598.3h-19.1v-4.7l6.4-6.5c1.8-1.9,3-3.2,3.6-3.9s1-1.3,1.2-1.8c0.2-0.5,0.3-1,0.3-1.6
			c0-0.7-0.2-1.2-0.7-1.6c-0.4-0.4-1.1-0.6-1.9-0.6c-0.8,0-1.7,0.2-2.5,0.7c-0.8,0.5-1.8,1.2-2.9,2.1l-3.9-4.6
			c1.4-1.2,2.5-2.1,3.4-2.6c0.9-0.5,1.9-0.9,3-1.2c1.1-0.3,2.3-0.4,3.7-0.4c1.7,0,3.2,0.3,4.6,0.9c1.3,0.6,2.4,1.5,3.1,2.6
			c0.7,1.1,1.1,2.4,1.1,3.7c0,1-0.1,2-0.4,2.9c-0.3,0.9-0.7,1.7-1.2,2.6c-0.5,0.8-1.3,1.7-2.2,2.7c-0.9,0.9-2.8,2.7-5.7,5.3v0.2h9.9
			V598.3z"/>
	</g>
	<g>
		<path class="st2" d="M468.5,472.7c0,1.7-0.4,3.2-1.3,4.4c-0.8,1.3-2.1,2.3-3.7,3c-1.6,0.7-3.5,1.1-5.6,1.1c-1.8,0-3.3-0.1-4.5-0.4
			c-1.2-0.3-2.5-0.7-3.8-1.3V473c1.4,0.7,2.8,1.3,4.3,1.7c1.5,0.4,2.9,0.6,4.1,0.6c1.1,0,1.9-0.2,2.4-0.6c0.5-0.4,0.8-0.9,0.8-1.4
			c0-0.4-0.1-0.7-0.3-1c-0.2-0.3-0.5-0.6-1-0.8c-0.4-0.3-1.6-0.9-3.6-1.7c-1.8-0.8-3.1-1.6-3.9-2.3c-0.9-0.7-1.5-1.6-2-2.6
			c-0.4-1-0.6-2.1-0.6-3.4c0-2.5,0.9-4.4,2.7-5.8c1.8-1.4,4.3-2.1,7.4-2.1c2.8,0,5.6,0.6,8.5,1.9l-2.2,5.6c-2.5-1.2-4.7-1.7-6.5-1.7
			c-0.9,0-1.6,0.2-2.1,0.5c-0.4,0.3-0.6,0.7-0.6,1.2c0,0.5,0.3,1,0.8,1.4c0.5,0.4,2,1.2,4.4,2.3c2.3,1,3.9,2.2,4.8,3.4
			C468,469.3,468.5,470.9,468.5,472.7z"/>
		<path class="st2" d="M484.5,480.8h-7.3v-21h-6.6v-5.9h20.4v5.9h-6.6V480.8z"/>
		<path class="st2" d="M510.9,480.8h-16v-26.9h16v5.8h-8.7v4.2h8.1v5.8h-8.1v5.1h8.7V480.8z"/>
		<path class="st2" d="M535.2,462.5c0,3-0.9,5.3-2.7,7c-1.8,1.6-4.3,2.5-7.6,2.5h-2v8.9h-7.3v-26.9h9.3c3.4,0,6,0.7,7.7,2.2
			C534.3,457.6,535.2,459.8,535.2,462.5z M522.9,466h1.3c1.1,0,2-0.3,2.6-0.9c0.6-0.6,1-1.5,1-2.5c0-1.8-1-2.7-3-2.7h-1.9V466z"/>
		<path class="st2" d="M566.1,459.8c0,1.7-0.5,3.1-1.5,4.3c-1,1.2-2.5,2.1-4.4,2.6v0.1c4.5,0.6,6.7,2.7,6.7,6.4c0,2.5-1,4.5-3,5.9
			c-2,1.4-4.7,2.2-8.3,2.2c-1.4,0-2.8-0.1-4-0.3c-1.2-0.2-2.6-0.6-4-1.1v-6c1.2,0.6,2.4,1,3.6,1.3c1.2,0.3,2.3,0.4,3.4,0.4
			c1.6,0,2.8-0.2,3.5-0.7c0.7-0.4,1.1-1.1,1.1-2.1c0-0.7-0.2-1.3-0.6-1.7c-0.4-0.4-1-0.7-1.8-0.9c-0.8-0.2-2-0.3-3.3-0.3h-1.7v-5.5
			h1.7c3.7,0,5.5-0.9,5.5-2.8c0-0.7-0.3-1.2-0.8-1.6c-0.5-0.3-1.3-0.5-2.2-0.5c-1.7,0-3.5,0.6-5.3,1.7l-3-4.9c1.4-1,2.9-1.7,4.4-2.1
			c1.5-0.4,3.2-0.6,5.1-0.6c2.8,0,5,0.6,6.6,1.7C565.3,456.3,566.1,457.8,566.1,459.8z"/>
	</g>
	<g>
		<path class="st3" d="M668.1,355.1c0,1.7-0.4,3.2-1.3,4.4c-0.8,1.3-2.1,2.3-3.7,3c-1.6,0.7-3.5,1.1-5.6,1.1c-1.8,0-3.3-0.1-4.5-0.4
			c-1.2-0.3-2.5-0.7-3.8-1.3v-6.5c1.4,0.7,2.8,1.3,4.3,1.7c1.5,0.4,2.9,0.6,4.1,0.6c1.1,0,1.9-0.2,2.4-0.6c0.5-0.4,0.8-0.9,0.8-1.4
			c0-0.4-0.1-0.7-0.3-1c-0.2-0.3-0.5-0.6-1-0.8c-0.4-0.3-1.6-0.9-3.6-1.7c-1.8-0.8-3.1-1.6-3.9-2.3c-0.9-0.7-1.5-1.6-2-2.6
			c-0.4-1-0.6-2.1-0.6-3.4c0-2.5,0.9-4.4,2.7-5.8c1.8-1.4,4.3-2.1,7.4-2.1c2.8,0,5.6,0.6,8.5,1.9l-2.2,5.6c-2.5-1.2-4.7-1.7-6.5-1.7
			c-0.9,0-1.6,0.2-2.1,0.5c-0.4,0.3-0.6,0.7-0.6,1.2c0,0.5,0.3,1,0.8,1.4c0.5,0.4,2,1.2,4.4,2.3c2.3,1,3.9,2.2,4.8,3.4
			C667.7,351.8,668.1,353.3,668.1,355.1z"/>
		<path class="st3" d="M684.2,363.3h-7.3v-21h-6.6v-5.9h20.4v5.9h-6.6V363.3z"/>
		<path class="st3" d="M710.5,363.3h-16v-26.9h16v5.8h-8.7v4.2h8.1v5.8h-8.1v5.1h8.7V363.3z"/>
		<path class="st3" d="M734.8,344.9c0,3-0.9,5.3-2.7,7c-1.8,1.6-4.3,2.5-7.6,2.5h-2v8.9h-7.3v-26.9h9.3c3.4,0,6,0.7,7.7,2.2
			C733.9,340.1,734.8,342.2,734.8,344.9z M722.5,348.4h1.3c1.1,0,2-0.3,2.6-0.9c0.6-0.6,1-1.5,1-2.5c0-1.8-1-2.7-3-2.7h-1.9V348.4z"
			/>
		<path class="st3" d="M767.5,358.1h-3v5.2h-7.2v-5.2h-10.7v-5.3l11.2-16.4h6.7v16.3h3V358.1z M757.3,352.7v-3.1
			c0-0.6,0-1.4,0.1-2.4c0-1,0.1-1.5,0.1-1.6h-0.2c-0.4,0.9-0.9,1.8-1.4,2.7l-3,4.4H757.3z"/>
	</g>
	<g>
		<path class="st24" d="M861.2,238.3c0,1.7-0.4,3.2-1.3,4.4c-0.8,1.3-2.1,2.3-3.7,3c-1.6,0.7-3.5,1.1-5.6,1.1
			c-1.8,0-3.3-0.1-4.5-0.4c-1.2-0.3-2.5-0.7-3.8-1.3v-6.5c1.4,0.7,2.8,1.3,4.3,1.7c1.5,0.4,2.9,0.6,4.1,0.6c1.1,0,1.9-0.2,2.4-0.6
			c0.5-0.4,0.8-0.9,0.8-1.4c0-0.4-0.1-0.7-0.3-1c-0.2-0.3-0.5-0.6-1-0.8c-0.4-0.3-1.6-0.9-3.6-1.7c-1.8-0.8-3.1-1.6-3.9-2.3
			c-0.9-0.7-1.5-1.6-2-2.6c-0.4-1-0.6-2.1-0.6-3.4c0-2.5,0.9-4.4,2.7-5.8c1.8-1.4,4.3-2.1,7.4-2.1c2.8,0,5.6,0.6,8.5,1.9l-2.2,5.6
			c-2.5-1.2-4.7-1.7-6.5-1.7c-0.9,0-1.6,0.2-2.1,0.5c-0.4,0.3-0.6,0.7-0.6,1.2c0,0.5,0.3,1,0.8,1.4c0.5,0.4,2,1.2,4.4,2.3
			c2.3,1,3.9,2.2,4.8,3.4C860.7,234.9,861.2,236.4,861.2,238.3z"/>
		<path class="st24" d="M877.2,246.4H870v-21h-6.6v-5.9h20.4v5.9h-6.6V246.4z"/>
		<path class="st24" d="M903.6,246.4h-16v-26.9h16v5.8h-8.7v4.2h8.1v5.8h-8.1v5.1h8.7V246.4z"/>
		<path class="st24" d="M927.9,228.1c0,3-0.9,5.3-2.7,7c-1.8,1.6-4.3,2.5-7.6,2.5h-2v8.9h-7.3v-26.9h9.3c3.4,0,6,0.7,7.7,2.2
			C927,223.2,927.9,225.3,927.9,228.1z M915.6,231.6h1.3c1.1,0,2-0.3,2.6-0.9c0.6-0.6,1-1.5,1-2.5c0-1.8-1-2.7-3-2.7h-1.9V231.6z"/>
		<path class="st24" d="M951.3,228.8c1.5,0,2.9,0.4,4.2,1.1s2.2,1.7,2.9,3c0.7,1.3,1,2.8,1,4.5c0,3-0.9,5.3-2.7,6.9
			c-1.8,1.6-4.6,2.4-8.2,2.4c-3.1,0-5.7-0.5-7.7-1.5v-6c1.1,0.5,2.3,0.9,3.6,1.2c1.3,0.3,2.5,0.5,3.5,0.5c1.4,0,2.4-0.3,3.1-0.9
			c0.7-0.6,1.1-1.4,1.1-2.5c0-1-0.4-1.8-1.1-2.4c-0.7-0.6-1.9-0.9-3.4-0.9c-1.1,0-2.4,0.2-3.7,0.6l-2.7-1.3l1-14.2h15.4v6.1h-9.2
			l-0.3,3.6c1-0.2,1.6-0.3,2-0.3C950.5,228.8,950.9,228.8,951.3,228.8z"/>
	</g>
</g>
</svg>
