<?xml version="1.0" encoding="utf-8"?>
<!-- Generator: Adobe Illustrator 21.0.2, SVG Export Plug-In . SVG Version: 6.00 Build 0)  -->
<svg version="1.1" id="Layer_1" xmlns="http://www.w3.org/2000/svg" xmlns:xlink="http://www.w3.org/1999/xlink" x="0px" y="0px"
	 viewBox="0 0 500 500" style="enable-background:new 0 0 500 500;" xml:space="preserve">
<style type="text/css">
	.st0{fill:#D1D1D1;}
	.st1{fill:#1C3D67;}
	.st2{fill:#E4F2F9;}
	.st3{fill:#7FCCD1;}
	.st4{fill:#F76563;}
	.st5{fill:#F4D9BE;}
	.st6{fill:#FFE8CF;}
	.st7{fill:#FDFBFC;}
	.st8{fill:#E0C9A4;}
	.st9{fill:#AFF7F9;}
	.st10{fill:none;stroke:#FDFBFC;stroke-miterlimit:10;}
</style>
<g id="Designed_by_freepik">
</g>
<ellipse class="st0" cx="364.2" cy="473.6" rx="131.5" ry="26.4"/>
<path class="st1" d="M493.1,308.9H235.4c-3.8,0-6.9-3.1-6.9-6.9l0,0c0-3.8,3.1-6.9,6.9-6.9h257.7c3.8,0,6.9,3.1,6.9,6.9l0,0
	C500,305.8,496.9,308.9,493.1,308.9z"/>
<g>
	<path class="st1" d="M284,482.1L284,482.1c-5.5,0-9.6-7.2-8.2-14.6l28.7-158.6h17.4l-29.8,164.2C291.3,478.3,287.9,482.1,284,482.1
		z"/>
	<path class="st1" d="M444.4,482.1L444.4,482.1c5.5,0,9.6-7.2,8.2-14.6l-28.7-158.6h-17.4l29.8,164.2
		C437.2,478.3,440.6,482.1,444.4,482.1z"/>
</g>
<path class="st1" d="M364.2,482.1L364.2,482.1c-4.7,0-8.5-5.2-8.5-11.8V308.9h17.1v161.4C372.7,476.9,368.9,482.1,364.2,482.1z"/>
<g>
	<path class="st1" d="M493.1,45.9H235.4c-3.8,0-6.9-3.7-6.9-8.3l0,0c0-4.6,3.1-8.3,6.9-8.3h257.7c3.8,0,6.9,3.7,6.9,8.3l0,0
		C500,42.3,496.9,45.9,493.1,45.9z"/>
	<path class="st1" d="M376.9,3h-25.3c-8.4,0-15.3,8.3-15.3,18.5v8.7h55.9v-8.7C392.2,11.3,385.3,3,376.9,3z"/>
	<polygon class="st2" points="482,295.4 246.6,295.4 241.8,45.9 486.7,45.9 	"/>
	<path class="st3" d="M437.7,81.7H290.8c-4.6,0-8.4-4.6-8.4-10.2l0,0c0-5.6,3.8-10.2,8.4-10.2h147c4.6,0,8.4,4.6,8.4,10.2l0,0
		C446.1,77.1,442.3,81.7,437.7,81.7z"/>
	<g>
		<g>
			<rect x="276.4" y="139.6" class="st4" width="39.6" height="121"/>
			<rect x="322.7" y="119.9" class="st3" width="38.5" height="140.7"/>
			<rect x="368.9" y="146.5" class="st4" width="37.6" height="114"/>
			<rect x="415.2" y="189.1" class="st3" width="37.7" height="71.5"/>
		</g>
		<g>
			<rect x="265.2" y="268" class="st1" width="199.1" height="5.6"/>
			<rect x="264.2" y="93.1" class="st1" width="4.6" height="180.5"/>
		</g>
	</g>
</g>
<ellipse class="st0" cx="94.7" cy="444.6" rx="77" ry="25.8"/>
<path class="st5" d="M226.1,199.7l-3.3,23.6c0,0-17.8,11.6-25.8-1.4l-12.3-5.6l7.7-16.1l1.5-5.7c1.7-6.1,6.8-10.9,13.3-12.2l7.8-1.7
	c2.6-0.6,5.1,1.2,5.5,3.7c0.2,2.3-1.2,4.4-3.4,5l-9.9,2.7l-0.4,1.4"/>
<path class="st1" d="M210.2,123.7L210.2,123.7c-0.9,0-1.7,0.8-1.7,1.8l5.7,97.5c0,0.9,0.8,1.7,1.8,1.5h0.1c0.9,0,1.7-0.8,1.5-1.8
	l-5.7-97.5C211.9,124.4,211.1,123.7,210.2,123.7z"/>
<path class="st6" d="M213.1,206.3v0.4c0.4,2.6,2.7,4.4,5.3,4l11-1.5c2.6-0.4,4.4-2.7,4-5.3v-0.4c-0.4-2.6-2.7-4.4-5.3-4l-11,1.5
	C214.5,201.3,212.7,203.7,213.1,206.3z"/>
<path class="st6" d="M214,213.3v0.4c0.4,2.6,2.7,4.4,5.3,4l11-1.5c2.6-0.4,4.4-2.7,4-5.3v-0.4c-0.4-2.6-2.7-4.4-5.3-4l-11,1.5
	C215.6,208.3,213.7,210.7,214,213.3z"/>
<path class="st6" d="M211.7,198.5v0.4c0.4,2.6,2.7,4.4,5.3,4l11-1.5c2.6-0.4,4.4-2.7,4-5.3v-0.4c-0.4-2.6-2.7-4.4-5.3-4l-11,1.5
	C213.1,193.5,211.3,195.9,211.7,198.5z"/>
<path class="st6" d="M215.1,220.3v0.4c0.4,2.6,2.7,4.4,5.3,4l11-1.5c2.6-0.4,4.4-2.7,4-5.3v-0.4c-0.4-2.6-2.7-4.4-5.3-4l-11,1.5
	C216.5,215.3,214.7,217.7,215.1,220.3z"/>
<path class="st1" d="M129.4,226.3c0,0,38.3,28.8,53.9-14.5l34.2,17.1c0,0-41.8,63.6-91.6,8.7"/>
<polygon class="st1" points="40,339 144.9,339 129.6,226.3 55.4,226.3 "/>
<polygon class="st7" points="115,226.3 92.2,308.2 69.9,226.3 "/>
<g>
	
		<ellipse transform="matrix(0.9979 -6.540865e-02 6.540865e-02 0.9979 -9.9593 9.9251)" class="st8" cx="146.6" cy="157.1" rx="16" ry="16"/>
	
		<ellipse transform="matrix(0.9979 -6.540865e-02 6.540865e-02 0.9979 -10.714 2.3013)" class="st8" cx="29.8" cy="164.8" rx="16" ry="16"/>
</g>
<path class="st6" d="M80.7,215.8l22-1.4c24.2-1.5,42.6-22.6,41-46.8L139,96.5l-109.7,7.2l4.6,71.1C35.6,199.1,56.5,217.5,80.7,215.8
	z"/>
<path class="st1" d="M16.7,126.2c2.1,10.8,6.4,21.8,13.9,31.6c1.9,2.4,5.6,2,7-0.6c3.1-5.9,7-18,4.3-39.3
	c-0.9-7.8,4.9-14.8,12.7-15.3l59.1-3.9c7.8-0.5,14.6,5.7,14.6,13.5c0.1,21.5,5.6,32.9,9.4,38.5c1.8,2.5,5.5,2.4,7-0.2
	c6.2-10.7,8.9-22.2,9.6-33.1c1.1-15.3-6.1-29.1-17.3-37.5c0,0,4.7-1.4,7-5.7c2-3.9-2.3-8.1-6.2-5.9l-1.7,0.8c0,0,4.7-11.2-8.3-20.8
	c-2.3-1.7-5.6-0.8-6.8,1.8c-3.6,8-12.3,22.7-27.8,19.5c-21-4.3-59.4-5.2-64.2,17.1C19,96.3,13.6,111,16.7,126.2z"/>
<path class="st1" d="M26.3,84.4c0,0-2.3-10-7-5.2C13.6,84.9,26.3,84.4,26.3,84.4z"/>
<rect x="77.5" y="215.1" transform="matrix(0.9979 -6.540858e-02 6.540858e-02 0.9979 -14.6428 6.5309)" class="st7" width="29.8" height="23.6"/>
<rect x="76.9" y="215.1" transform="matrix(0.9979 -6.540859e-02 6.540859e-02 0.9979 -13.9968 6.4714)" class="st9" width="29.8" height="3.8"/>
<g>
	<g>
		
			<ellipse transform="matrix(0.9987 -5.014008e-02 5.014008e-02 0.9987 -7.8575 3.2397)" class="st1" cx="60.6" cy="158.2" rx="5.8" ry="5.8"/>
		
			<ellipse transform="matrix(0.9987 -5.013954e-02 5.013954e-02 0.9987 -7.653 5.9263)" class="st1" cx="114.3" cy="155.5" rx="5.8" ry="5.8"/>
	</g>
	<g>
		<path class="st1" d="M51.3,141c3.2-3.3,9-7,18.2-5.5c1.1,0.2,2-0.6,2-1.8l-0.4-7.4c0-0.9-0.8-1.7-1.8-1.5
			c-4.9,0.4-18.3,2.5-20.9,14.7C48.1,141.3,50.1,142.2,51.3,141z"/>
		<path class="st1" d="M121.9,137.5c-3.6-3-9.7-6.1-18.6-3.6c-1.1,0.2-2.1-0.5-2.1-1.5l-0.4-7.4c0-0.9,0.7-1.8,1.7-1.8
			c4.9-0.1,18.5,0.7,22.2,12.6C125.1,137.3,123.2,138.7,121.9,137.5z"/>
	</g>
	<path class="st4" d="M90.2,170.3l-3.7,0.2c-2.8,0.1-5.2-2.3-5-5.1l1.1-14.8c0.1-2.4,2.1-4.3,4.5-4.4l0,0c2.4-0.1,4.5,1.5,4.9,3.9
		l2.6,14.7C95.2,167.6,93.1,170.2,90.2,170.3z"/>
	<g>
		<path class="st1" d="M105,175.8c0.2,4.2-1.2,8.1-3.6,11.2c-2.8,3.6-7.2,6.1-12.1,6.3c-5,0.2-9.5-1.7-12.7-5
			c-2.7-2.7-4.5-6.5-4.6-10.7L105,175.8z"/>
		<path class="st4" d="M101.5,187c-2.8,3.6-7.2,6.1-12.1,6.3c-5,0.2-9.5-1.7-12.7-5c2.8-3.6,7.2-6.1,12.1-6.3
			C93.6,181.7,98.3,183.6,101.5,187z"/>
	</g>
</g>
<path class="st9" d="M107.3,220.7l-14.8,5.6l5.5,8.3c1.1,1.5,3.2,2,4.7,0.8l12.3-9.1L107.3,220.7z"/>
<path class="st9" d="M77.6,220.7l14.8,5.6l-5.5,8.3c-1.1,1.5-3.2,2-4.7,0.8l-12.3-9.1L77.6,220.7z"/>
<polygon class="st4" points="92.5,226.3 98.8,235.8 92.5,241.5 86.2,235.8 "/>
<path class="st4" d="M92.2,289.4l-5.8-8.8c-1.4-2-1.9-4.6-1.5-7.1l7.4-42.1h0.2l7.4,42.1c0.5,2.5-0.1,5-1.5,7.1l-5.8,8.8v0.5
	l-0.1-0.2l-0.1,0.2L92.2,289.4z"/>
<polygon class="st1" points="130.7,339 119.1,436.3 135,444.6 107.3,444.6 99.9,339 "/>
<polygon class="st1" points="84.7,339 73,436.3 89,444.6 61.4,444.6 54,339 "/>
<g>
	<polyline class="st10" points="82.5,308.2 66.8,269 71.2,263.7 61,258 58,231.4 	"/>
	<polyline class="st10" points="102.6,308.2 118.1,269 113.8,263.7 123.9,258 126.9,231.4 	"/>
</g>
<path class="st1" d="M55.4,226.3l-1.2,14.2c0,0-22.8,0.7-26.7,18.9c-4,18.2,13.9,22.9,13.9,22.9l-9.9,29.6c0,0-34.2-12.9-29.1-48.7
	C7.7,227.6,55.4,226.3,55.4,226.3z"/>
<path class="st5" d="M40,286.7c0,0,13.2,2.6,8.3,18.8c-4.4,14.2-15.4,17-23.5,16.5c-1.7-0.1-3-1.5-3-3.2l0,0c0-1.7,1.2-3.1,2.8-3.2
	c3.1-0.4,7.5-1.3,6.9-3.6"/>
</svg>
