<?xml version="1.0" encoding="utf-8"?>
<!-- Generator: Adobe Illustrator 21.0.2, SVG Export Plug-In . SVG Version: 6.00 Build 0)  -->
<svg version="1.1" id="Layer_1" xmlns="http://www.w3.org/2000/svg" xmlns:xlink="http://www.w3.org/1999/xlink" x="0px" y="0px"
	 viewBox="0 0 800 800" style="enable-background:new 0 0 800 800;" xml:space="preserve">
<style type="text/css">
	.st0{fill:none;stroke:#00A79D;stroke-width:2;stroke-miterlimit:10;}
	.st1{fill:#FFFFFF;}
	.st2{fill:#231F20;}
	.st3{fill:#484A4C;}
	.st4{fill:#C8C7EA;}
	.st5{fill:#F1F2F2;}
	.st6{fill:none;stroke:#CCD0FF;stroke-miterlimit:10;}
	.st7{fill:#00AEEF;stroke:#CCD0FF;stroke-miterlimit:10;}
	.st8{fill:#FF8592;}
	.st9{fill:#40E5FF;}
	.st10{fill:#FFF380;}
	.st11{fill:#AADC00;}
	.st12{fill:#FFFFFF;stroke:#F15A29;stroke-width:2;stroke-miterlimit:10;}
	.st13{fill:#FF2E2E;}
	.st14{fill:#6CBA22;}
	.st15{fill:#FFFFFF;stroke:#6CBA22;stroke-width:3.5;stroke-miterlimit:10;}
	.st16{fill:#F15A29;stroke:#F15A29;stroke-width:2;stroke-miterlimit:10;}
</style>
<g>
	<path class="st0" d="M780.9,499.8h-22l-28.4-24.7L702,499.8h-22c-8.3,0-15.1,6.8-15.1,15.1v100.9c0,8.3,6.8,15.1,15.1,15.1h22
		l28.4,24.7l28.4-24.7h22c8.3,0,15.1-6.8,15.1-15.1V514.9C796,506.5,789.2,499.8,780.9,499.8z"/>
	<path class="st0" d="M730.4,657.4c-0.4,0-0.9-0.1-1.2-0.4l-28-24.2H680c-9.3,0-17-7.7-17-17V514.9c0-9.3,7.7-17,17-17h21.2l28-24.2
		c0.7-0.7,1.8-0.7,2.4,0l28,24.2h21.2c9.3,0,17,7.7,17,17v100.9c0,9.3-7.7,17-17,17h-21.2l-28,24.2
		C731.3,657.3,730.9,657.4,730.4,657.4z M680,501.7c-7.3,0-13.2,5.9-13.2,13.2v100.9c0,7.3,5.9,13.2,13.2,13.2h22
		c0.4,0,0.9,0.1,1.2,0.4l27.2,23.6l27.2-23.6c0.3-0.3,0.8-0.4,1.2-0.4h22c7.3,0,13.2-5.9,13.2-13.2V514.9c0-7.3-5.9-13.2-13.2-13.2
		h-22c-0.4,0-0.9-0.1-1.2-0.4l-27.2-23.6l-27.2,23.6c-0.3,0.3-0.8,0.4-1.2,0.4H680z"/>
</g>
<g>
	<path class="st0" d="M120.1,422.5h-22l-28.4-24.7l-28.4,24.7h-22c-8.3,0-15.1,6.8-15.1,15.1v100.9c0,8.3,6.8,15.1,15.1,15.1h22
		l28.4,24.7l28.4-24.7h22c8.3,0,15.1-6.8,15.1-15.1V437.7C135.2,429.3,128.4,422.5,120.1,422.5z"/>
	<path class="st0" d="M69.6,580.2c-0.4,0-0.9-0.1-1.2-0.4l-28-24.2H19.2c-9.3,0-17-7.7-17-17V437.7c0-9.3,7.7-17,17-17h21.2l28-24.2
		c0.7-0.7,1.8-0.7,2.4,0l28,24.2h21.2c9.3,0,17,7.7,17,17v100.9c0,9.3-7.7,17-17,17H98.9l-28,24.2C70.5,580.1,70.1,580.2,69.6,580.2
		z M19.2,424.4c-7.3,0-13.2,5.9-13.2,13.2v100.9c0,7.3,5.9,13.2,13.2,13.2h22c0.4,0,0.9,0.1,1.2,0.4l27.2,23.6l27.2-23.6
		c0.3-0.3,0.8-0.4,1.2-0.4h22c7.3,0,13.2-5.9,13.2-13.2V437.7c0-7.3-5.9-13.2-13.2-13.2h-22c-0.4,0-0.9-0.1-1.2-0.4l-27.2-23.6
		L42.4,424c-0.3,0.3-0.8,0.4-1.2,0.4H19.2z"/>
</g>
<g>
	<path class="st1" d="M630.8,604.1V362.2c0-14.4-11.7-26.1-26.1-26.1H194.4c-14.4,0-26.1,11.7-26.1,26.1v241.9H630.8z"/>
	<path class="st2" d="M630.8,606H168.3c-1,0-1.9-0.9-1.9-1.9V362.2c0-15.4,12.6-28,28-28h410.2c15.4,0,28,12.6,28,28v241.9
		C632.7,605.2,631.9,606,630.8,606z M170.2,602.2h458.7v-240c0-13.3-10.9-24.2-24.2-24.2H194.4c-13.3,0-24.2,10.9-24.2,24.2V602.2z"
		/>
</g>
<rect x="167.6" y="604.1" class="st3" width="463.8" height="39.7"/>
<path class="st2" d="M631.4,645.8H167.6c-1,0-1.9-0.9-1.9-1.9v-39.7c0-1,0.9-1.9,1.9-1.9h463.8c1,0,1.9,0.9,1.9,1.9v39.7
	C633.3,644.9,632.4,645.8,631.4,645.8z M169.5,642h460v-35.9h-460L169.5,642L169.5,642z"/>
<rect x="184.6" y="353.1" class="st4" width="429.7" height="234"/>
<path d="M614.4,589H184.6c-1,0-1.9-0.9-1.9-1.9v-234c0-1,0.9-1.9,1.9-1.9h429.8c1,0,1.9,0.9,1.9,1.9v234
	C616.3,588.1,615.4,589,614.4,589z M186.5,585.2h425.9V355H186.5V585.2z"/>
<g>
	<polygon class="st5" points="469,703.4 330.1,703.4 338.5,643.9 460.5,643.9 	"/>
	<path class="st2" d="M469.1,705.3L469.1,705.3h-139c-0.6,0-1.1-0.2-1.4-0.7c-0.3-0.4-0.6-1-0.4-1.6l8.6-59.6
		c0.1-0.9,0.9-1.7,1.9-1.7h122c0.9,0,1.8,0.7,1.9,1.7l8.4,59c0.1,0.2,0.2,0.6,0.2,0.8C471,704.4,470.1,705.3,469.1,705.3z
		 M332.2,701.6h134.7l-8-55.8H340.2L332.2,701.6z"/>
</g>
<g>
	<line class="st6" x1="366.9" y1="624" x2="432.2" y2="624"/>
	<path class="st7" d="M432.2,625.9h-65.3c-1,0-1.9-0.9-1.9-1.9s0.9-1.9,1.9-1.9h65.3c1,0,1.9,0.9,1.9,1.9
		C434.1,625,433.2,625.9,432.2,625.9z"/>
</g>
<g>
	<line class="st6" x1="399.5" y1="617.1" x2="399.5" y2="630.9"/>
	<path class="st7" d="M399.5,632.8c-1,0-1.9-0.9-1.9-1.9v-13.8c0-1,0.9-1.9,1.9-1.9c1,0,1.9,0.9,1.9,1.9v13.8
		C401.4,631.9,400.5,632.8,399.5,632.8z"/>
</g>
<g>
	<path class="st1" d="M512.9,724.8c0-0.3,0-0.6,0-0.9c0-11.3-9.2-20.4-20.4-20.4H306.7c-11.3,0-20.4,9.2-20.4,20.4
		c0,0.3,0,0.6,0,0.9H512.9z"/>
	<path class="st2" d="M512.9,726.7H286.2c-1,0-1.9-0.8-1.9-1.8c0-0.4,0-0.7,0-1c0-12.3,10-22.3,22.3-22.3h185.9
		c12.3,0,22.3,10,22.3,22.3c0,0.2,0,0.4,0,0.7C514.8,725.6,513.9,726.7,512.9,726.7z M288,722.9h223c-0.7-10-8.8-17.6-18.6-17.6
		H306.7C296.7,705.3,288.5,713.1,288,722.9z"/>
</g>
<g>
	<g>
		<rect x="240.4" y="160.1" class="st1" width="318.2" height="427"/>
		<path d="M558.7,589H240.4c-1,0-1.9-0.9-1.9-1.9v-427c0-1,0.9-1.9,1.9-1.9h318.2c1,0,1.9,0.9,1.9,1.9v427
			C560.5,588.1,559.7,589,558.7,589z M242.3,585.2h314.5V162H242.3L242.3,585.2L242.3,585.2z"/>
	</g>
	<g>
		<path class="st1" d="M547.5,132.8h-296c-6.1,0-11.1,5-11.1,11.1v16.3h318.2v-16.3C558.7,137.8,553.7,132.8,547.5,132.8z"/>
		<path d="M558.7,162H240.4c-1,0-1.9-0.9-1.9-1.9v-16.3c0-7.1,5.8-13,13-13h296.1c7.1,0,13,5.8,13,13v16.3
			C560.5,161.2,559.7,162,558.7,162z M242.3,158.2h314.5v-14.4c0-5.1-4.1-9.2-9.2-9.2h-296c-5.1,0-9.2,4.1-9.2,9.2L242.3,158.2
			L242.3,158.2z"/>
	</g>
</g>
<g>
	<rect x="258.9" y="182.4" class="st8" width="253.3" height="13.9"/>
</g>
<g>
	<rect x="258.9" y="208.5" class="st8" width="230.3" height="13.9"/>
</g>
<g>
	<rect x="258.9" y="234.5" class="st9" width="282.8" height="13.9"/>
</g>
<g>
	<rect x="258.9" y="260.7" class="st9" width="41.9" height="13.9"/>
</g>
<g>
	<rect x="325" y="260.7" class="st9" width="114.6" height="13.9"/>
</g>
<g>
	<rect x="258.9" y="286.7" class="st9" width="267.6" height="13.9"/>
</g>
<g>
	<rect x="258.9" y="312.8" class="st10" width="282.8" height="13.9"/>
</g>
<g>
	<rect x="258.9" y="442.5" class="st10" width="77.9" height="13.9"/>
</g>
<g>
	<rect x="258.9" y="338.8" class="st11" width="228.3" height="13.9"/>
</g>
<g>
	<rect x="258.9" y="364.9" class="st11" width="282.5" height="13.9"/>
</g>
<g>
	<rect x="258.9" y="390.9" class="st11" width="219.5" height="13.9"/>
</g>
<g>
	<rect x="258.9" y="417" class="st11" width="282.5" height="13.9"/>
</g>
<g>
	<polygon class="st12" points="436.7,56.1 480,81.1 436.7,106.1 	"/>
	<path class="st12" d="M436.7,108c-0.3,0-0.7-0.1-0.9-0.2c-0.6-0.3-1-1-1-1.7v-50c0-0.7,0.3-1.3,1-1.7c0.6-0.3,1.3-0.3,1.9,0
		l43.3,25c0.6,0.3,0.9,1,0.9,1.7c0,0.7-0.3,1.3-0.9,1.7l-43.3,25C437.3,107.9,437,108,436.7,108z M438.5,59.3v43.4l37.7-21.7
		L438.5,59.3z"/>
</g>
<g>
	<polygon class="st12" points="498,56.1 541.3,81.1 498,106.1 	"/>
	<path class="st12" d="M498,108c-0.3,0-0.7-0.1-1-0.2c-0.6-0.3-0.9-1-0.9-1.7v-50c0-0.7,0.3-1.3,0.9-1.7c0.6-0.3,1.3-0.3,1.9,0
		l43.3,25c0.6,0.3,0.9,1,0.9,1.7c0,0.7-0.3,1.3-0.9,1.7l-43.3,25C498.7,107.9,498.3,108,498,108z M499.9,59.3v43.4l37.7-21.7
		L499.9,59.3z"/>
</g>
<g>
	<rect x="49.8" y="88.2" class="st12" width="54.1" height="54.1"/>
	<path class="st12" d="M103.9,144.2H49.8c-1,0-1.9-0.9-1.9-1.9V88.2c0-1,0.9-1.9,1.9-1.9h54.1c1,0,1.9,0.9,1.9,1.9v54.1
		C105.8,143.4,104.9,144.2,103.9,144.2z M51.5,140.4h50.3V90.1H51.5V140.4z"/>
</g>
<g>
	<rect x="126.4" y="88.2" class="st12" width="54.1" height="54.1"/>
	<path class="st12" d="M180.6,144.2h-54.1c-1,0-1.9-0.9-1.9-1.9V88.2c0-1,0.9-1.9,1.9-1.9h54.1c1,0,1.9,0.9,1.9,1.9v54.1
		C182.5,143.4,181.6,144.2,180.6,144.2z M128.3,140.4h50.3V90.1h-50.3V140.4z"/>
</g>
<g>
	<g>
		<path class="st13" d="M469,763.2h-13.2c-1,0-1.9-0.9-1.9-1.9s0.9-1.9,1.9-1.9H469c1,0,1.9,0.9,1.9,1.9
			C470.9,762.3,470.1,763.2,469,763.2z"/>
	</g>
	<g>
		<path class="st13" d="M432.8,763.2h-26.9c-1,0-1.9-0.9-1.9-1.9s0.9-1.9,1.9-1.9h26.9c1,0,1.9,0.9,1.9,1.9S433.8,763.2,432.8,763.2
			z M382.8,763.2h-26.9c-1,0-1.9-0.9-1.9-1.9s0.9-1.9,1.9-1.9h26.9c1,0,1.9,0.9,1.9,1.9S383.9,763.2,382.8,763.2z M332.8,763.2
			h-26.9c-1,0-1.9-0.9-1.9-1.9s0.9-1.9,1.9-1.9h26.9c1,0,1.9,0.9,1.9,1.9S333.9,763.2,332.8,763.2z M282.9,763.2H256
			c-1,0-1.9-0.9-1.9-1.9s0.9-1.9,1.9-1.9h26.9c1,0,1.9,0.9,1.9,1.9C284.8,762.3,283.9,763.2,282.9,763.2z"/>
	</g>
	<g>
		<path class="st13" d="M232.9,763.2h-13.2c-1,0-1.9-0.9-1.9-1.9v-13.2c0-1,0.9-1.9,1.9-1.9c1,0,1.9,0.9,1.9,1.9v11.3h11.3
			c1,0,1.9,0.9,1.9,1.9S233.9,763.2,232.9,763.2z"/>
	</g>
	<g>
		<path class="st13" d="M219.7,739.9c-1,0-1.9-0.9-1.9-1.9v-13.2c0-1,0.9-1.9,1.9-1.9c1,0,1.9,0.9,1.9,1.9V738
			C221.5,739,220.7,739.9,219.7,739.9z"/>
	</g>
</g>
<g>
	<g>
		<path class="st13" d="M591.5,338c-1,0-1.9-0.9-1.9-1.9v-13.2c0-1,0.9-1.9,1.9-1.9s1.9,0.9,1.9,1.9v13.2
			C593.4,337.1,592.5,338,591.5,338z"/>
	</g>
	<g>
		<path class="st13" d="M591.5,305.4c-1,0-1.9-0.9-1.9-1.9V281c0-1,0.9-1.9,1.9-1.9s1.9,0.9,1.9,1.9v22.6
			C593.4,304.5,592.5,305.4,591.5,305.4z"/>
	</g>
	<g>
		<path class="st13" d="M591.5,263.5c-1,0-1.9-0.9-1.9-1.9v-13.2c0-1,0.9-1.9,1.9-1.9h13.2c1,0,1.9,0.9,1.9,1.9c0,1-0.9,1.9-1.9,1.9
			h-11.3v11.3C593.4,262.7,592.5,263.5,591.5,263.5z"/>
	</g>
	<g>
		<path class="st13" d="M646.9,250.3h-22.7c-1,0-1.9-0.9-1.9-1.9c0-1,0.9-1.9,1.9-1.9h22.7c1,0,1.9,0.9,1.9,1.9
			C648.8,249.4,648,250.3,646.9,250.3z"/>
	</g>
	<g>
		<path class="st13" d="M679.6,250.3h-13.2c-1,0-1.9-0.9-1.9-1.9c0-1,0.9-1.9,1.9-1.9h11.3v-11.3c0-1,0.9-1.9,1.9-1.9
			c1,0,1.9,0.9,1.9,1.9v13.2C681.4,249.4,680.7,250.3,679.6,250.3z"/>
	</g>
	<g>
		<path class="st13" d="M679.6,223.7c-1,0-1.9-0.9-1.9-1.9v-13.2c0-1,0.9-1.9,1.9-1.9c1,0,1.9,0.9,1.9,1.9v13.2
			C681.4,222.8,680.7,223.7,679.6,223.7z"/>
	</g>
</g>
<g>
	<g>
		<path class="st13" d="M168.3,364.1h-13.2c-1,0-1.9-0.9-1.9-1.9c0-1,0.9-1.9,1.9-1.9h13.2c1,0,1.9,0.9,1.9,1.9
			S169.3,364.1,168.3,364.1z"/>
	</g>
	<g>
		<path class="st13" d="M136.5,364.1H115c-1,0-1.9-0.9-1.9-1.9c0-1,0.9-1.9,1.9-1.9h21.6c1,0,1.9,0.9,1.9,1.9
			C138.4,363.2,137.6,364.1,136.5,364.1z M96.4,364.1H74.9c-1,0-1.9-0.9-1.9-1.9c0-1,0.9-1.9,1.9-1.9h21.6c1,0,1.9,0.9,1.9,1.9
			S97.5,364.1,96.4,364.1z"/>
	</g>
	<g>
		<path class="st13" d="M56.3,364.1H43.1c-1,0-1.9-0.9-1.9-1.9V349c0-1,0.9-1.9,1.9-1.9c1,0,1.9,0.9,1.9,1.9v11.3h11.3
			c1,0,1.9,0.9,1.9,1.9C58.2,363.2,57.3,364.1,56.3,364.1z"/>
	</g>
	<g>
		<path class="st13" d="M43.1,315.7c-1,0-1.9-0.9-1.9-1.9v-13.2c0-1,0.9-1.9,1.9-1.9c1,0,1.9,0.9,1.9,1.9v13.2
			C45,314.8,44.2,315.7,43.1,315.7z"/>
	</g>
</g>
<g>
	<polygon class="st5" points="420.8,471.9 420.9,521.8 378.2,521.8 378.2,472 356.3,493.9 356.3,529.7 375.4,548.9 375.4,587 
		423.7,587 423.7,548.9 442.8,529.7 442.8,493.9 	"/>
	<path class="st2" d="M423.7,588.9h-48.1c-1,0-1.9-0.9-1.9-1.9v-37.3L355,531c-0.3-0.3-0.6-0.9-0.6-1.3v-35.9c0-0.6,0.2-1,0.6-1.3
		l21.9-21.9c0.6-0.6,1.3-0.7,2.1-0.4c0.7,0.3,1.1,1,1.1,1.8v48H419v-48c0-0.8,0.4-1.4,1.1-1.8c0.7-0.3,1.6-0.1,2.1,0.4l22,22
		c0.3,0.3,0.6,0.9,0.6,1.3v35.9c0,0.6-0.2,1-0.6,1.3l-18.7,18.6V587C425.5,588,424.7,588.9,423.7,588.9z M377.3,585.1h44.3v-36.2
		c0-0.4,0.2-1,0.6-1.3l18.6-18.6v-34.2l-18.2-18.2v45.3c0,0.6-0.2,1-0.6,1.3c-0.3,0.3-0.9,0.6-1.3,0.6l0,0H378c-1,0-1.9-0.9-1.9-1.9
		v-45.3L358,494.7v34.2l18.6,18.6c0.3,0.3,0.6,0.9,0.6,1.3L377.3,585.1z"/>
</g>
<g>
	<path d="M410.8,588.9c-1,0-1.9-0.9-1.9-1.9v-37.6c0-1,0.9-1.9,1.9-1.9s1.9,0.9,1.9,1.9V587C412.7,588,411.9,588.9,410.8,588.9z"/>
</g>
<g>
	<path class="st0" d="M780.9,92.4H611.4c-8.3,0-15.1,6.8-15.1,15.1v53.3l-55,47.6h70h5.6h164c8.3,0,15.1-6.8,15.1-15.1v-85.9
		C796,99.2,789.2,92.4,780.9,92.4z"/>
	<path class="st0" d="M780.9,210.4H541.3c-0.8,0-1.4-0.4-1.8-1.2c-0.3-0.8-0.1-1.6,0.6-2.1l54.3-47v-52.6c0-9.3,7.7-17,17-17H781
		c9.3,0,17,7.7,17,17v85.9C797.9,202.8,790.3,210.4,780.9,210.4z M546.4,206.7H781c7.3,0,13.2-5.9,13.2-13.2v-85.9
		c0-7.3-5.9-13.2-13.2-13.2H611.4c-7.3,0-13.2,5.9-13.2,13.2v53.3c0,0.6-0.2,1.1-0.7,1.4L546.4,206.7z"/>
</g>
<g>
	<path class="st0" d="M181.5,270.4v-72.1c0-8.3-6.8-15.1-15.1-15.1H19.2c-8.3,0-15.1,6.8-15.1,15.1v86.2c0,8.3,6.8,15.1,15.1,15.1
		h140.3h6.9h48.9L181.5,270.4z"/>
	<path class="st0" d="M215.3,301.7H19.2c-9.3,0-17-7.7-17-17v-86.2c0-9.3,7.7-17,17-17h147.2c9.3,0,17,7.7,17,17v71.2l33.1,28.7
		c0.6,0.6,0.8,1.3,0.6,2.1C216.9,301.1,216.1,301.7,215.3,301.7z M19.2,185.2c-7.3,0-13.2,5.9-13.2,13.2v86.2
		c0,7.3,5.9,13.2,13.2,13.2h191.1l-30-26c-0.4-0.3-0.7-0.9-0.7-1.4v-72.1c0-7.3-5.9-13.2-13.2-13.2H19.2V185.2z"/>
</g>
<g>
	<path class="st0" d="M739.9,705.3H573.4l-20.1-34.9l-20.1,34.9h-49c-8.3,0-15.1,6.8-15.1,15.1v59.7c0,8.3,6.8,15.1,15.1,15.1H740
		c8.3,0,15.1-6.8,15.1-15.1v-59.7C755,712.1,748.2,705.3,739.9,705.3z"/>
	<path class="st0" d="M739.9,797.1H484.1c-9.3,0-17-7.7-17-17v-59.7c0-9.3,7.7-17,17-17h48l19.6-33.9c0.3-0.6,1-1,1.7-1l0,0
		c0.7,0,1.3,0.3,1.7,1l19.6,33.9H740c9.3,0,17,7.7,17,17v59.7C756.9,789.4,749.2,797.1,739.9,797.1z M484.1,707.2
		c-7.3,0-13.2,5.9-13.2,13.2v59.7c0,7.3,5.9,13.2,13.2,13.2h255.8c7.3,0,13.2-5.9,13.2-13.2v-59.7c0-7.3-5.9-13.2-13.2-13.2H573.4
		c-0.7,0-1.3-0.3-1.7-1l-18.4-32l-18.4,32c-0.3,0.6-1,1-1.7,1L484.1,707.2L484.1,707.2z"/>
</g>
<g>
	<path class="st0" d="M290.9,617.1h-54.7h-8.3H55.4c-8.3,0-15.1,6.8-15.1,15.1v77.4c0,8.3,6.8,15.1,15.1,15.1h180.8
		c8.3,0,15.1-6.8,15.1-15.1v-58.3L290.9,617.1z"/>
	<path class="st0" d="M236.1,726.7H55.4c-9.3,0-17-7.7-17-17v-77.4c0-9.3,7.7-17,17-17h235.5c0.8,0,1.4,0.4,1.8,1.2
		c0.2,0.8,0.1,1.6-0.6,2.1l-38.9,33.7v57.4C253.1,719,245.5,726.7,236.1,726.7z M55.4,619c-7.3,0-13.2,5.9-13.2,13.2v77.4
		c0,7.3,5.9,13.2,13.2,13.2h180.8c7.3,0,13.2-5.9,13.2-13.2v-58.3c0-0.6,0.2-1.1,0.7-1.4l35.8-31H55.4V619z"/>
</g>
<g>
	<path class="st0" d="M780.9,287.5h-95.6H680h-53.7l38.6,33.4v82.7c0,8.3,6.8,15.1,15.1,15.1h100.9c8.3,0,15.1-6.8,15.1-15.1V302.8
		C796,294.3,789.2,287.5,780.9,287.5z"/>
	<path class="st0" d="M780.9,420.5H680c-9.3,0-17-7.7-17-17v-81.8l-37.9-32.9c-0.6-0.6-0.8-1.3-0.6-2.1c0.2-0.8,1-1.2,1.8-1.2h154.6
		c9.3,0,17,7.7,17,17v100.9C797.9,412.9,790.3,420.5,780.9,420.5z M631.3,289.4l34.8,30.1c0.4,0.3,0.7,0.9,0.7,1.4v82.7
		c0,7.3,5.9,13.2,13.2,13.2h100.9c7.3,0,13.2-5.9,13.2-13.2V302.8c0-7.3-5.9-13.2-13.2-13.2H631.3V289.4z"/>
</g>
<g>
	<g>
		<g>
			<path class="st14" d="M495.1,775.3v-44.7h8.7c5.1,0,8.7,0.2,10.4,0.7c2.6,0.7,4.6,1.9,6.1,3.8c1.6,1.9,2.4,4.3,2.4,7.2
				c0,2.9-0.8,5.3-2.3,7.2c-1.6,1.9-3.7,3.2-6.4,3.9c-2,0.4-5.9,0.8-11.4,0.8h-3.7v21.1H495.1z M498.9,750.6l8.1,0.1
				c3.1,0,5.4-0.3,7-0.9c1.6-0.6,2.7-1.6,3.6-2.9c0.9-1.3,1.3-2.8,1.3-4.4c0-1.6-0.4-3.1-1.3-4.3c-0.9-1.3-2-2.3-3.4-2.9
				c-1.4-0.6-3.7-0.8-6.8-0.8h-8.4V750.6z"/>
		</g>
	</g>
	<g>
		<g>
			<polygon class="st14" points="543.7,775.3 543.7,754 529.3,730.7 533.9,730.7 545.4,749.8 557.2,730.6 561.5,730.7 547.4,753.8 
				547.4,775.3 			"/>
		</g>
	</g>
	<g>
		<g>
			<polygon class="st14" points="575.7,775.3 575.7,734.3 565.4,734.3 565.4,730.7 589.7,730.7 589.7,734.3 579.4,734.3 
				579.4,775.3 			"/>
		</g>
	</g>
	<g>
		<g>
			<polygon class="st14" points="624.6,775.3 624.6,753.4 600.7,753.4 600.7,775.3 596.9,775.3 596.9,730.7 600.7,730.7 
				600.7,749.8 624.6,749.8 624.6,730.7 628.3,730.7 628.3,775.3 			"/>
		</g>
	</g>
	<g>
		<g>
			<path class="st14" d="M661.7,776.4c-6.6,0-12.2-2.3-16.8-6.8c-4.6-4.6-6.9-10-6.9-16.4c0-4.3,1-8.3,3.1-11.9
				c2.1-3.7,4.9-6.6,8.4-8.6c3.6-2.1,7.4-3.1,11.7-3.1c6.8,0,12.4,2.3,17,6.8c4.6,4.4,6.9,10.1,6.9,16.7s-2.3,12.1-6.8,16.7
				C673.8,774.2,668.2,776.4,661.7,776.4z M661.6,733.2c-3.4,0-6.7,0.9-9.8,2.7c-3,1.8-5.4,4.2-7.2,7.2c-1.7,3-2.6,6.4-2.6,10.1
				c0,5.4,1.9,10.1,5.8,13.9c3.8,3.8,8.4,5.7,13.8,5.7c3.6,0,6.9-0.9,10-2.7c3-1.8,5.4-4.1,7.1-7.1c1.7-3,2.6-6.4,2.6-10.1
				c0-3.7-0.9-7-2.6-10c-1.7-3-4.1-5.3-7.2-7.1C668.3,734.1,665,733.2,661.6,733.2z"/>
		</g>
	</g>
	<g>
		<g>
			<polygon class="st14" points="729.3,775.3 699,740.3 699,775.3 695.1,775.3 695.1,730.7 695.7,730.7 726.2,766.1 726.2,730.7 
				730,730.7 730,775.3 			"/>
		</g>
	</g>
</g>
<g>
	<g>
		<g>
			<polygon class="st14" points="649.2,173.8 649.2,150.9 624.4,150.9 624.4,173.8 620.4,173.8 620.4,127.2 624.4,127.2 
				624.4,147.1 649.2,147.1 649.2,127.2 653.2,127.2 653.2,173.8 			"/>
		</g>
	</g>
	<g>
		<g>
			<polygon class="st14" points="671.3,173.8 671.3,131.1 660.8,131.1 660.8,127.2 686,127.2 686,131.1 675.4,131.1 675.4,173.8 			
				"/>
		</g>
	</g>
	<g>
		<g>
			<polygon class="st14" points="740,173.8 735.2,139 718.1,173.8 717.3,173.8 700,138.8 695.2,173.8 691.4,173.8 698.1,127.2 
				698.3,127.2 717.8,166.4 737,127.2 737.2,127.2 743.9,173.8 			"/>
		</g>
	</g>
	<g>
		<g>
			<polygon class="st14" points="754,173.8 754,127.2 758,127.2 758,169.9 776.1,169.9 776.1,173.8 			"/>
		</g>
	</g>
</g>
<g>
	<g>
		<g>
			<path class="st14" d="M704.1,384.8c-2.3,0-4.8-0.4-7.1-1.4c-2.1-0.9-4.4-2.3-7.1-4.3l2.1-3.2c3,2,5.3,3.4,7.4,4.3
				c1.6,0.7,3.1,1,4.7,1c2,0,3.9-0.7,5.6-1.9c1.7-1.2,2.8-2.9,3.4-4.9c0.7-1.9,0.9-5.4,0.9-10.8v-41h4v41.2c0,6.3-0.4,10.8-1.4,13.1
				c-0.9,2.3-2.4,4.1-4.6,5.6C709.9,384.1,707.2,384.8,704.1,384.8z"/>
		</g>
	</g>
	<g>
		<g>
			<path class="st14" d="M747,384.8c-3.6,0-6.9-1-9.8-2.9c-2.7-1.8-5.3-4.8-7.7-8.9l3.4-2c3.8,6.6,8.3,9.9,13.4,9.9
				c2.3,0,4.4-0.6,6.4-1.6c2-1.1,3.6-2.6,4.7-4.3s1.6-3.8,1.6-5.8c0-2.3-0.8-4.7-2.3-6.8c-2-2.9-5.7-6.2-11-10.3
				c-5.1-3.9-8.3-6.7-9.6-8.3c-2.1-2.8-3.1-5.8-3.1-8.9c0-2.6,0.6-4.8,1.8-6.9c1.2-2,2.9-3.7,5.1-4.9s4.7-1.8,7.2-1.8
				c2.8,0,5.3,0.7,7.8,2c2.2,1.2,4.7,3.6,7.1,6.9l-3.3,2.6c-2.2-2.8-4-4.6-5.7-5.6c-1.9-1.1-3.9-1.7-6-1.7c-2.8,0-5.2,0.9-7,2.7
				c-1.8,1.8-2.8,3.9-2.8,6.4c0,1.6,0.3,3,1,4.4c0.7,1.4,1.8,2.9,3.3,4.6c0.9,0.9,3.4,2.9,8.2,6.3c5.3,3.9,9,7.4,10.9,10.4
				c1.9,2.9,2.9,5.9,2.9,8.8c0,4.2-1.6,7.9-4.8,11C755.6,383.2,751.6,384.8,747,384.8z"/>
		</g>
	</g>
</g>
<g>
	<g>
		<g>
			<path class="st14" d="M54.4,266c-8.4,0-15.1-2.9-20-8.4c-4.1-4.8-6.1-10.6-6.1-17.2c0-7,2.6-13,7.4-17.9
				c4.9-4.8,11.2-7.2,18.7-7.2c4.6,0,8.7,0.9,12.2,2.7c3.6,1.7,6.4,4.1,8.7,7.2l-3.2,2.6c-2.1-2.7-4.7-4.8-7.6-6.1
				c-3-1.4-6.4-2.2-10-2.2c-4,0-7.7,1-11.1,2.9c-3.3,1.9-6,4.4-7.9,7.7s-2.8,6.9-2.8,10.9c0,6.1,2.1,11.2,6.2,15.2
				c4.1,4.1,9.4,6.1,15.8,6.1c6.9,0,12.7-2.7,17.3-7.9l3.3,2.4c-2.3,2.9-5.3,5.2-8.8,6.8C63,265.2,58.9,266,54.4,266z"/>
		</g>
	</g>
	<g>
		<g>
			<polygon class="st14" points="98.5,257 98.5,242.5 84,242.5 84,238.8 98.5,238.8 98.5,224.2 102.3,224.2 102.3,238.8 117,238.8 
				117,242.5 102.3,242.5 102.3,257 			"/>
		</g>
	</g>
	<g>
		<g>
			<polygon class="st14" points="140,257 140,242.5 125.3,242.5 125.3,238.8 140,238.8 140,224.2 143.8,224.2 143.8,238.8 
				158.3,238.8 158.3,242.5 143.8,242.5 143.8,257 			"/>
		</g>
	</g>
</g>
<g>
	<g>
		<g>
			<path class="st14" d="M93.4,697l-18-23.3h-3.7V697h-4v-49h9.4c5.6,0,9.2,0.2,11.2,0.7c2.9,0.7,5.2,2.1,7,4.2
				c1.8,2.1,2.7,4.8,2.7,7.9c0,2.7-0.7,4.9-1.9,6.9c-1.2,2-3,3.4-5.2,4.4c-2.3,1-5.6,1.6-9.7,1.6h-1.1l18,23.3H93.4z M71.6,669.9
				l9.2,0.1c3.4,0,6-0.3,7.7-1c1.7-0.7,3.1-1.8,4-3.2c1-1.4,1.4-3.1,1.4-5c0-1.8-0.4-3.4-1.4-4.9c-1-1.4-2.2-2.6-3.9-3.1
				c-1.6-0.7-4-0.9-7.6-0.9h-9.4V669.9z"/>
		</g>
	</g>
	<g>
		<g>
			<path class="st14" d="M126.6,698.2c-3.9,0-7.3-0.9-10.1-2.8c-2.8-1.9-4.7-4.3-5.6-7.3c-0.6-1.9-0.9-5.4-0.9-10.4V648h3.9v29.7
				c0,3.7,0.1,5.9,0.2,6.8c0.2,2,0.9,3.8,1.8,5.2c1,1.4,2.4,2.6,4.4,3.6c2,0.9,4,1.4,5.9,1.4c1.8,0,3.4-0.3,5-1.1
				c1.6-0.8,3-1.8,4-3.1c1.1-1.3,1.9-2.9,2.3-4.8c0.3-1.3,0.6-3.9,0.6-8V648h3.9v29.7c0,4.4-0.4,8-1.3,10.7c-0.9,2.7-2.6,5-5.1,6.9
				C133.3,697.2,130.2,698.2,126.6,698.2z"/>
		</g>
	</g>
	<g>
		<g>
			<path class="st14" d="M155.8,697v-49h9.3c3.9,0,6.9,0.4,9,1.3c2,0.9,3.7,2.3,4.8,4.1c1.2,1.9,1.8,3.9,1.8,6.2
				c0,2.1-0.6,4.1-1.6,5.8c-1,1.8-2.6,3.1-4.6,4.2l-1.1,0.7l1.2,0.4c2.6,0.9,4.4,1.9,5.8,3s2.4,2.6,3.1,4.1c0.8,1.7,1.1,3.3,1.1,5.2
				c0,3.9-1.4,7.1-4.2,9.8c-2.8,2.7-6.7,4-11.4,4h-13.2V697z M159.5,693.2h6.8c3.7,0,6.6-0.3,8.3-1.1c1.8-0.8,3.2-2,4.3-3.6
				c1.1-1.6,1.7-3.3,1.7-5.2c0-2.3-0.8-4.4-2.3-6.2c-1.6-1.8-3.7-3-6.3-3.6c-1.8-0.4-4.8-0.7-9-0.7h-3.4L159.5,693.2L159.5,693.2z
				 M159.5,668.9h3.4c3.6,0,6.2-0.3,7.9-1c1.8-0.7,3.1-1.8,4.1-3.2c1-1.4,1.6-3.1,1.6-5c0-2.4-0.9-4.4-2.7-5.9
				c-1.7-1.3-4.4-2.1-8-2.1h-6.3L159.5,668.9L159.5,668.9z"/>
		</g>
	</g>
	<g>
		<g>
			<polygon class="st14" points="208,697 208,673.6 192.2,648 196.6,648 209.8,669.1 222.8,648 227.2,648 211.9,673.2 211.8,697 			
				"/>
		</g>
	</g>
</g>
<g>
	<path class="st15" d="M764.9,548.2c-0.8-1.7-1.8-3.2-2.8-4.7l5.7-12.7c-5.6-6.1-12.6-10.7-20.1-13.3l-9.4,10.1
		c-3.6-0.8-7.1-1-10.8-0.7l-8.1-11.2c-3.9,0.9-7.8,2.2-11.4,4.1c-3.8,1.9-7.1,4.1-10.2,6.7l4.1,13.3c-2.4,2.8-4.4,5.8-6,9l-13.8,1.4
		c-2.4,7.7-3,16-1.6,24.1l13.6,3.1c0.6,1.7,1.2,3.3,2.1,5c0.8,1.7,1.8,3.2,2.8,4.7l-5.7,12.7c5.7,6.1,12.6,10.7,20.1,13.3l9.4-10.1
		c3.6,0.8,7.2,1,10.8,0.7l8.1,11.2c3.9-0.9,7.8-2.2,11.4-4.1c3.8-1.9,7.1-4.1,10.2-6.7l-4.1-13.3c2.4-2.8,4.4-5.8,6-9l13.8-1.4
		c2.4-7.7,3-16,1.6-24.1l-13.6-3.1C766.4,551.5,765.8,549.9,764.9,548.2z M741.4,587.4c-12.2,6.1-27.1,1.1-33.2-11.2
		c-6.1-12.2-1.1-27.1,11.2-33.2c12.2-6.1,27.1-1.1,33.2,11.2C758.7,566.5,753.8,581.4,741.4,587.4z"/>
	<path class="st15" d="M719.4,543.1c-12.2,6.1-17.2,21-11.2,33.2c6.1,12.2,20.9,17.2,33.2,11.2c12.2-6.1,17.2-21,11.2-33.2
		C746.6,542,731.7,537,719.4,543.1z"/>
</g>
<g>
	<g>
		<path class="st14" d="M40.1,510.2c-0.4,0-1-0.2-1.3-0.6l-20.2-20.2c-0.3-0.3-0.6-0.8-0.6-1.3s0.2-1,0.6-1.3l20.2-20.2
			c0.8-0.8,1.9-0.8,2.7,0c0.8,0.8,0.8,1.9,0,2.7l-18.9,18.9L41.4,507c0.8,0.8,0.8,1.9,0,2.7C41.1,510,40.5,510.2,40.1,510.2z"/>
	</g>
	<g>
		<path class="st14" d="M99.2,510.2c-0.4,0-1-0.2-1.3-0.6c-0.8-0.8-0.8-1.9,0-2.7l18.9-18.9l-18.9-18.9c-0.8-0.8-0.8-1.9,0-2.7
			c0.8-0.8,1.9-0.8,2.7,0l20.2,20.2c0.8,0.8,0.8,1.9,0,2.7l-20.2,20.2C100.2,510,99.8,510.2,99.2,510.2z"/>
	</g>
	<g>
		<path class="st14" d="M81.3,510.2c-0.7,0-1.2-0.3-1.6-0.9l-23.3-37.6c-0.6-0.9-0.3-2,0.6-2.6s2-0.3,2.6,0.6l23.3,37.6
			c0.6,0.9,0.3,2-0.6,2.6C82,510.1,81.6,510.2,81.3,510.2z"/>
	</g>
</g>
<g>
	<path class="st0" d="M391.8,5H228.5c-8.3,0-15.1,6.8-15.1,15.1v108c0,8.3,6.8,15.1,15.1,15.1H281l29.1,32.9l29.1-32.9h52.4
		c8.3,0,15.1-6.8,15.1-15.1v-108C406.9,11.8,400.1,5,391.8,5z"/>
	<path class="st0" d="M310.1,177.9c-0.6,0-1-0.2-1.4-0.7L280.1,145h-51.7c-9.3,0-17-7.7-17-17V20.1c0-9.3,7.7-17,17-17h163.2
		c9.3,0,17,7.7,17,17v108c0,9.3-7.7,17-17,17H340l-28.6,32.2C311.2,177.6,310.7,177.9,310.1,177.9z M228.5,6.9
		c-7.3,0-13.2,5.9-13.2,13.2v108c0,7.3,5.9,13.2,13.2,13.2H281c0.6,0,1,0.2,1.4,0.7l27.8,31.2L338,142c0.3-0.4,0.9-0.7,1.4-0.7h52.4
		c7.3,0,13.2-5.9,13.2-13.2v-108c0-7.3-5.9-13.2-13.2-13.2H228.5z"/>
</g>
<g>
	<g>
		<g>
			<path class="st14" d="M236.5,103.1V42.8h11.3c7,0,11.8,0.3,14.2,0.9c3.3,0.8,6.1,2.6,8.2,5c2.1,2.6,3.1,5.8,3.1,9.7
				s-1,7.1-3.1,9.7c-2,2.6-4.9,4.2-8.6,5.1c-2.8,0.7-8,1-15.7,1h-5.6v29.1h-4V103.1z M240.5,70.1l11.8,0.1c4.4,0,7.7-0.4,9.9-1.2
				c2.2-0.9,4-2.3,5.2-4.2c1.2-1.9,1.9-4.1,1.9-6.4c0-2.3-0.7-4.4-1.9-6.3s-3-3.3-5-4.1c-2-0.8-5.1-1.2-9.6-1.2h-12.2v23.4H240.5z"
				/>
		</g>
	</g>
	<g>
		<g>
			<polygon class="st14" points="326.3,103.1 326.3,72.9 292.2,72.9 292.2,103.1 288.2,103.1 288.2,42.8 292.2,42.8 292.2,69 
				326.3,69 326.3,42.8 330.3,42.8 330.3,103.1 			"/>
		</g>
	</g>
	<g>
		<g>
			<path class="st14" d="M347.8,103.1V42.8h11.3c7,0,11.8,0.3,14.2,0.9c3.3,0.8,6.1,2.6,8.2,5c2.1,2.6,3.1,5.8,3.1,9.7
				s-1,7.1-3.1,9.7c-2,2.6-4.9,4.2-8.6,5.1c-2.8,0.7-8,1-15.7,1h-5.6v29.1h-4V103.1z M351.8,70.1l11.8,0.1c4.4,0,7.7-0.4,9.9-1.2
				c2.2-0.9,4-2.3,5.2-4.2c1.2-1.9,1.9-4.1,1.9-6.4c0-2.3-0.7-4.4-1.9-6.3s-3-3.3-5-4.1c-2-0.8-5.1-1.2-9.6-1.2h-12.2v23.4H351.8z"
				/>
		</g>
	</g>
</g>
<g>
	<path class="st13" d="M695.9,461.2h-15.3c-1,0-1.9-0.9-1.9-1.9c0-1,0.9-1.9,1.9-1.9H694v-9.2c0-1,0.9-1.9,1.9-1.9
		c1,0,1.9,0.9,1.9,1.9v11.1C697.8,460.4,696.9,461.2,695.9,461.2z M657.9,461.2h-26.4c-1,0-1.9-0.9-1.9-1.9c0-1,0.9-1.9,1.9-1.9
		h26.4c1,0,1.9,0.9,1.9,1.9C659.8,460.4,658.9,461.2,657.9,461.2z M695.9,427.5c-1,0-1.9-0.9-1.9-1.9v-7c0-1,0.9-1.9,1.9-1.9
		c1,0,1.9,0.9,1.9,1.9v7C697.8,426.7,696.9,427.5,695.9,427.5z"/>
</g>
<g>
	<rect x="462.2" y="494.8" class="st5" width="94.6" height="34.7"/>
</g>
<g>
	<rect x="242.3" y="494.8" class="st5" width="94.6" height="34.7"/>
</g>
<g>
	<path class="st16" d="M146.6,134c-0.4,0-1-0.2-1.3-0.6c-0.8-0.8-0.8-1.9,0-2.7l15.6-15.6l-15.6-15.6c-0.8-0.8-0.8-1.9,0-2.7
		c0.8-0.8,1.9-0.8,2.7,0l16.9,16.9c0.3,0.3,0.6,0.9,0.6,1.3c0,0.6-0.2,1-0.6,1.3L148,133.4C147.5,133.9,147.1,134,146.6,134z"/>
</g>
<g>
	<path class="st16" d="M83.8,134c-0.4,0-1-0.2-1.3-0.6l-16.9-16.9c-0.3-0.3-0.6-0.9-0.6-1.3c0-0.6,0.2-1,0.6-1.3L82.4,97
		c0.8-0.8,1.9-0.8,2.7,0s0.8,1.9,0,2.7l-15.6,15.6l15.6,15.6c0.8,0.8,0.8,1.9,0,2.7C84.8,133.9,84.3,134,83.8,134z"/>
</g>
</svg>
